<?xml version="1.0" encoding="utf-8"?>
<!-- Generator: Adobe Illustrator 21.0.0, SVG Export Plug-In . SVG Version: 6.00 Build 0)  -->
<svg version="1.1" id="Calque_1" xmlns="http://www.w3.org/2000/svg" xmlns:xlink="http://www.w3.org/1999/xlink" x="0px" y="0px"
	 width="1369px" height="327px" viewBox="0 0 1369 327" style="enable-background:new 0 0 1369 327;" xml:space="preserve">
<style type="text/css">
	.st0{opacity:0.1;}
	.st1{fill:url(#SVGID_1_);}
	.st2{fill:url(#SVGID_2_);}
	.st3{fill:url(#SVGID_3_);}
	.st4{fill:url(#SVGID_4_);}
	.st5{fill:url(#SVGID_5_);}
</style>
<g class="st0">
	
		<linearGradient id="SVGID_1_" gradientUnits="userSpaceOnUse" x1="185.1129" y1="115.15" x2="1169.1564" y2="115.15" gradientTransform="matrix(1 0 0 -1 0 328)">
		<stop  offset="5.405406e-02" style="stop-color:#000000"/>
		<stop  offset="9.133926e-02" style="stop-color:#252525;stop-opacity:0.9589"/>
		<stop  offset="0.1549" style="stop-color:#5E5E5E;stop-opacity:0.889"/>
		<stop  offset="0.2187" style="stop-color:#8F8F8F;stop-opacity:0.8187"/>
		<stop  offset="0.2812" style="stop-color:#B7B7B7;stop-opacity:0.7499"/>
		<stop  offset="0.3422" style="stop-color:#D7D7D7;stop-opacity:0.6827"/>
		<stop  offset="0.4013" style="stop-color:#EDEDED;stop-opacity:0.6176"/>
		<stop  offset="0.4576" style="stop-color:#FAFAFA;stop-opacity:0.5557"/>
		<stop  offset="0.5081" style="stop-color:#FFFFFF;stop-opacity:0.5"/>
		<stop  offset="0.5433" style="stop-color:#F7F7F7;stop-opacity:0.5428"/>
		<stop  offset="0.598" style="stop-color:#E1E1E1;stop-opacity:0.6094"/>
		<stop  offset="0.6654" style="stop-color:#BDBDBD;stop-opacity:0.6914"/>
		<stop  offset="0.7429" style="stop-color:#8B8B8B;stop-opacity:0.7858"/>
		<stop  offset="0.829" style="stop-color:#4B4B4B;stop-opacity:0.8905"/>
		<stop  offset="0.9189" style="stop-color:#000000"/>
	</linearGradient>
	<path class="st1" d="M132.1,323.6c0-12.9,0.5-26.2,2.2-37.7l-0.4-0.4c-10.7,24.7-37.8,42-70.8,42C23.1,327.5,0,305,0,269.6
		C0,216.9,52.5,189,127.7,189v-12c0-23-11.2-34.9-43.2-34.9c-19.9,0-46.6,6.5-65.3,17.2l-5-47.4c22.3-7.9,50.9-13.7,79.3-13.7
		c71.3,0,91.2,28.3,91.2,76.5v104.9c10.8,1.7,25.9,3.5,38.7,4.4v35.4C195.4,323.1,161.1,324.4,132.1,323.6z M127.7,225.8
		c-60.1,0-73.4,17.2-73.4,34.9c0,14.1,9.8,23.4,26.2,23.4c28,0,47.2-26.5,47.2-53V225.8z"/>
	
		<linearGradient id="SVGID_2_" gradientUnits="userSpaceOnUse" x1="185.1129" y1="114.9" x2="1169.1564" y2="114.9" gradientTransform="matrix(1 0 0 -1 0 328)">
		<stop  offset="5.405406e-02" style="stop-color:#000000"/>
		<stop  offset="9.133926e-02" style="stop-color:#252525;stop-opacity:0.9589"/>
		<stop  offset="0.1549" style="stop-color:#5E5E5E;stop-opacity:0.889"/>
		<stop  offset="0.2187" style="stop-color:#8F8F8F;stop-opacity:0.8187"/>
		<stop  offset="0.2812" style="stop-color:#B7B7B7;stop-opacity:0.7499"/>
		<stop  offset="0.3422" style="stop-color:#D7D7D7;stop-opacity:0.6827"/>
		<stop  offset="0.4013" style="stop-color:#EDEDED;stop-opacity:0.6176"/>
		<stop  offset="0.4576" style="stop-color:#FAFAFA;stop-opacity:0.5557"/>
		<stop  offset="0.5081" style="stop-color:#FFFFFF;stop-opacity:0.5"/>
		<stop  offset="0.5433" style="stop-color:#F7F7F7;stop-opacity:0.5428"/>
		<stop  offset="0.598" style="stop-color:#E1E1E1;stop-opacity:0.6094"/>
		<stop  offset="0.6654" style="stop-color:#BDBDBD;stop-opacity:0.6914"/>
		<stop  offset="0.7429" style="stop-color:#8B8B8B;stop-opacity:0.7858"/>
		<stop  offset="0.829" style="stop-color:#4B4B4B;stop-opacity:0.8905"/>
		<stop  offset="0.9189" style="stop-color:#000000"/>
	</linearGradient>
	<path class="st2" d="M335.5,327c-61.4,0-99.7-31.8-99.7-106.6c0-68.5,36.1-121.2,114.4-121.2c15.1,0,31.1,2.2,45.4,6.2l-5.8,49.1
		c-12-4.4-25.9-8-40-8c-36.1,0-54.3,26.6-54.3,68.2c0,37.6,14.6,63.2,52.6,63.2c15,0,31.5-3.2,43.5-9.3l4.5,48.2
		C380.9,322.7,359.2,327,335.5,327z"/>
	
		<linearGradient id="SVGID_3_" gradientUnits="userSpaceOnUse" x1="185.1129" y1="154.05" x2="1169.1564" y2="154.05" gradientTransform="matrix(1 0 0 -1 0 328)">
		<stop  offset="5.405406e-02" style="stop-color:#000000"/>
		<stop  offset="9.133926e-02" style="stop-color:#252525;stop-opacity:0.9589"/>
		<stop  offset="0.1549" style="stop-color:#5E5E5E;stop-opacity:0.889"/>
		<stop  offset="0.2187" style="stop-color:#8F8F8F;stop-opacity:0.8187"/>
		<stop  offset="0.2812" style="stop-color:#B7B7B7;stop-opacity:0.7499"/>
		<stop  offset="0.3422" style="stop-color:#D7D7D7;stop-opacity:0.6827"/>
		<stop  offset="0.4013" style="stop-color:#EDEDED;stop-opacity:0.6176"/>
		<stop  offset="0.4576" style="stop-color:#FAFAFA;stop-opacity:0.5557"/>
		<stop  offset="0.5081" style="stop-color:#FFFFFF;stop-opacity:0.5"/>
		<stop  offset="0.5433" style="stop-color:#F7F7F7;stop-opacity:0.5428"/>
		<stop  offset="0.598" style="stop-color:#E1E1E1;stop-opacity:0.6094"/>
		<stop  offset="0.6654" style="stop-color:#BDBDBD;stop-opacity:0.6914"/>
		<stop  offset="0.7429" style="stop-color:#8B8B8B;stop-opacity:0.7858"/>
		<stop  offset="0.829" style="stop-color:#4B4B4B;stop-opacity:0.8905"/>
		<stop  offset="0.9189" style="stop-color:#000000"/>
	</linearGradient>
	<path class="st3" d="M860.7,103.2L835.9,189c-6.6,21.7-11.1,41.1-15.6,63.7h-0.9c-4.5-21.7-9.8-41.2-17.8-66.4l-27.1-83.2h-54.8
		L693,189c-6.2,19.4-11.5,39.4-16,63.7h-0.5c-5.3-22.6-11.5-44.7-17.3-66.4l-23.6-83.2H512V20.5l-57.1,15v67.6h-37.7V147h38.2v111.4
		c0,51.3,15.1,69,64.1,69c15.6,0,32-2.2,46.3-5.8V276c-8,2.3-18.2,3.6-27.6,3.6c-19.7,0-26.3-7.9-26.3-36.3v-96.4h74.9L641,323.1
		h58.7l28-91.5c5.7-18.2,10.7-35,15.1-55.4h0.5c4,18.7,7.5,34.1,12.5,49.2l32,97.7h61.8l69.5-219.9L860.7,103.2L860.7,103.2z"/>
	
		<linearGradient id="SVGID_4_" gradientUnits="userSpaceOnUse" x1="185.1129" y1="115.05" x2="1169.1564" y2="115.05" gradientTransform="matrix(1 0 0 -1 0 328)">
		<stop  offset="5.405406e-02" style="stop-color:#000000"/>
		<stop  offset="9.133926e-02" style="stop-color:#252525;stop-opacity:0.9589"/>
		<stop  offset="0.1549" style="stop-color:#5E5E5E;stop-opacity:0.889"/>
		<stop  offset="0.2187" style="stop-color:#8F8F8F;stop-opacity:0.8187"/>
		<stop  offset="0.2812" style="stop-color:#B7B7B7;stop-opacity:0.7499"/>
		<stop  offset="0.3422" style="stop-color:#D7D7D7;stop-opacity:0.6827"/>
		<stop  offset="0.4013" style="stop-color:#EDEDED;stop-opacity:0.6176"/>
		<stop  offset="0.4576" style="stop-color:#FAFAFA;stop-opacity:0.5557"/>
		<stop  offset="0.5081" style="stop-color:#FFFFFF;stop-opacity:0.5"/>
		<stop  offset="0.5433" style="stop-color:#F7F7F7;stop-opacity:0.5428"/>
		<stop  offset="0.598" style="stop-color:#E1E1E1;stop-opacity:0.6094"/>
		<stop  offset="0.6654" style="stop-color:#BDBDBD;stop-opacity:0.6914"/>
		<stop  offset="0.7429" style="stop-color:#8B8B8B;stop-opacity:0.7858"/>
		<stop  offset="0.829" style="stop-color:#4B4B4B;stop-opacity:0.8905"/>
		<stop  offset="0.9189" style="stop-color:#000000"/>
	</linearGradient>
	<path class="st4" d="M1126.5,222.2h-137c-0.5,41.1,19.9,61,60.9,61c21.8,0,45.5-4.8,64.6-13.6l5.3,43.8
		c-23.6,9.3-51.7,14.1-79.2,14.1c-70.3,0-109.5-35-109.5-112.3c0-67.3,37.5-116.8,103.7-116.8c64.6,0,93,43.8,93,98.2
		C1128.3,204.1,1127.9,212.9,1126.5,222.2z M1033.6,139.9c-23.7,0-40,17.3-43.2,43.8h81.5C1072.7,156.3,1057.5,139.9,1033.6,139.9z"
		/>
	
		<linearGradient id="SVGID_5_" gradientUnits="userSpaceOnUse" x1="185.1129" y1="164.4881" x2="1169.1564" y2="164.4881" gradientTransform="matrix(1 0 0 -1 0 328)">
		<stop  offset="5.405406e-02" style="stop-color:#000000"/>
		<stop  offset="9.133926e-02" style="stop-color:#252525;stop-opacity:0.9589"/>
		<stop  offset="0.1549" style="stop-color:#5E5E5E;stop-opacity:0.889"/>
		<stop  offset="0.2187" style="stop-color:#8F8F8F;stop-opacity:0.8187"/>
		<stop  offset="0.2812" style="stop-color:#B7B7B7;stop-opacity:0.7499"/>
		<stop  offset="0.3422" style="stop-color:#D7D7D7;stop-opacity:0.6827"/>
		<stop  offset="0.4013" style="stop-color:#EDEDED;stop-opacity:0.6176"/>
		<stop  offset="0.4576" style="stop-color:#FAFAFA;stop-opacity:0.5557"/>
		<stop  offset="0.5081" style="stop-color:#FFFFFF;stop-opacity:0.5"/>
		<stop  offset="0.5433" style="stop-color:#F7F7F7;stop-opacity:0.5428"/>
		<stop  offset="0.598" style="stop-color:#E1E1E1;stop-opacity:0.6094"/>
		<stop  offset="0.6654" style="stop-color:#BDBDBD;stop-opacity:0.6914"/>
		<stop  offset="0.7429" style="stop-color:#8B8B8B;stop-opacity:0.7858"/>
		<stop  offset="0.829" style="stop-color:#4B4B4B;stop-opacity:0.8905"/>
		<stop  offset="0.9189" style="stop-color:#000000"/>
	</linearGradient>
	<path class="st5" d="M1224,94.8c0,13.3-1.3,31.4-3.6,42.9h0.5c11.1-23.9,35.5-38.9,66.7-38.9c53,0,81.4,38,81.4,103
		c0,74.4-43.5,125.7-119.7,125.7c-32.1,0-56.9-3.5-82.3-10.6V43.6c-10.8-1.8-25.8-3.6-38.8-4.6V3.7c28.5-3.5,62.7-4.8,95.7-3.9v95
		H1224z M1271.1,145.7c-29.3,0-47.1,34.1-47.1,70.8v62c8,2.6,17.4,3.9,29.3,3.9c32.5,0,55.7-20.4,55.7-74.7
		C1309,166.5,1297,145.7,1271.1,145.7z"/>
</g>
</svg>
