<?xml version="1.0" encoding="UTF-8" standalone="no"?>
<svg width="551px" height="775px" viewBox="0 0 551 775" version="1.1" xmlns="http://www.w3.org/2000/svg" xmlns:xlink="http://www.w3.org/1999/xlink">
    <!-- Generator: Sketch 41.2 (35397) - http://www.bohemiancoding.com/sketch -->
    <title>iPad</title>
    <desc>Created with Sketch.</desc>
    <defs></defs>
    <g id="Page-1" stroke="none" stroke-width="1" fill="none" fill-rule="evenodd">
        <g id="Actweb-Case-study-1-Copy" transform="translate(-119.000000, -4674.000000)" fill="#D8D8D8">
            <g id="SLIDE#7-:-FOCUS-#1" transform="translate(119.000000, 4674.000000)">
                <g id="iPad">
                    <path d="M295.907407,739.309211 C295.907407,728.045508 286.7707,718.914474 275.5,718.914474 C264.2293,718.914474 255.092593,728.045508 255.092593,739.309211 C255.092593,750.572913 264.2293,759.703947 275.5,759.703947 C286.7707,759.703947 295.907407,750.572913 295.907407,739.309211 Z M260.194444,739.309211 C260.194444,730.861434 267.046975,724.013158 275.5,724.013158 C283.953025,724.013158 290.805556,730.861434 290.805556,739.309211 C290.805556,747.756987 283.953025,754.605263 275.5,754.605263 C267.046975,754.605263 260.194444,747.756987 260.194444,739.309211 Z M30.6111111,68.3223684 L32.6518519,66.2828947 L32.6518519,708.717105 L30.6111111,706.677632 L520.388889,706.677632 L518.348148,708.717105 L518.348148,66.2828947 L520.388889,68.3223684 L30.6111111,68.3223684 Z M520.388889,66.2828947 L520.388889,708.717105 L30.6111111,708.717105 L30.6111111,66.2828947 L520.388889,66.2828947 Z M5.10185185,749.545151 C5.10185185,760.782142 14.2245978,769.901316 25.4708054,769.901316 L525.529195,769.901316 C536.792213,769.901316 545.898148,760.79572 545.898148,749.545151 L545.898148,25.4548495 C545.898148,14.2178583 536.775402,5.09868421 525.529195,5.09868421 L25.4708054,5.09868421 C14.2077869,5.09868421 5.10185185,14.2042801 5.10185185,25.4548495 L5.10185185,749.545151 Z M25.4708054,0 L525.529195,0 C539.596332,0 551,11.4051862 551,25.4548495 L551,749.545151 C551,763.603476 539.618059,775 525.529195,775 L25.4708054,775 C11.403668,775 0,763.594814 0,749.545151 L0,25.4548495 C0,11.3965243 11.381941,0 25.4708054,0 Z M280.601852,40.7894737 C283.419527,40.7894737 285.703704,38.506715 285.703704,35.6907895 C285.703704,32.8748639 283.419527,30.5921053 280.601852,30.5921053 C277.784177,30.5921053 275.5,32.8748639 275.5,35.6907895 C275.5,38.506715 277.784177,40.7894737 280.601852,40.7894737 Z M33,64.5657895 L522,64.5657895 L522,707 L33,707 L33,64.5657895 Z" id="Combined-Shape"></path>
                </g>
            </g>
        </g>
    </g>
</svg>