<svg id="a54d867c-af3d-4ca5-933f-a6807e5b251a" data-name="Calque 1" xmlns="http://www.w3.org/2000/svg" viewBox="0 0 634.96 634.96"><title>Logos-Clients</title><path d="M229.72,351.3c-23,34.94-51.67,44.8-72,44.8-19.41,0-34.35-8.36-34.35-23,0-17.62,23.3-34.35,43.61-34.35,9.56,0,17.92,6,17.92,14.64,0,8.06-7.47,20.6-26.88,20.6a37.34,37.34,0,0,1-13.14-2.39,73.77,73.77,0,0,0,11.65,1.19c16.43,0,23.89-9.86,23.89-18.82,0-12.55-11.95-13.74-14.34-13.74-19.71,0-36.74,15.53-36.74,32.55,0,15.23,16.13,22.1,28.37,22.1,11.95,0,35.84-2.69,60.93-39.42,15.53-22.4,36.13-45.4,66.9-52.57-26,9.86-34,14.94-55.85,48.39Z" fill="#a6a6a6"/><path d="M209.11,379.67c8.66.3,21.5-9.26,21.5-17.62,0-5.38-4.78-6.57-6.87-6.57-16.13,0-27.48,16.43-27.48,25.39,0,10.16,9.56,13.14,14.34,13.14,16.73,0,38.82-19.71,38.82-35.24,0-8.66-4.48-9-7.76-9-2.39,0-3.58.6-3.58,1.5,0,1.19,1.79,1.79,2.69,1.79,11.05,0,30.76-17,30.76-31.66,0-10.45-9.56-10.75-12.24-10.75-17.32,0-28.07,14-38.53,28.37-10.15,14-29.27,32.56-51.67,37.94,23-8.37,38.23-25.39,49-40.32,10.45-14,27.18-28.67,44.8-28.67,5.38,0,14.93,3,14.93,13.14,0,14.63-25.09,33.15-36.14,33.15-4.78,0-5.38-1.79-5.38-3,0-2.09,4.48-3.88,8.06-3.88,5.08,0,12.24,3,12.24,11.35,0,13.44-22.1,36.73-47.19,36.73-9,0-16.73-5.67-16.73-13.44,0-11.35,15.23-28.08,32.55-28.08,5.68,0,9,4.18,9,7.17,0,7.16-11,19.41-25.09,18.52Zm229.08-6.27c-.3,0-.6.3-.9.6-10.16,10.16-19.71,17.62-25.39,17.62-3.89,0-5.38-1.19-5.38-6a8.26,8.26,0,0,1,.3-2.69c10.75-.3,26-7.47,26-15.23,0-1.49-.89-3.88-5.07-3.88-6.57,0-16.73,6.57-23,13.44-10.16,11.65-17.92,14.63-19.71,14.63s-4.18-1.19.6-7.77l14.63-19.71h-7.16L385.92,374c-9.56,12.84-17,18.22-20.91,18.22-2.09,0-4.48-1.49.3-8.06l14.94-19.71h-7.47c-8.06,10.75-12.25,15.23-31.66,26.58l19.71-26.58h-7.17l-3,4.48c-.6-4.18-3.28-5.38-7.47-5.38-7.17,0-16.13,5.67-21.8,11.94-9,9.56-18.82,16.73-24.19,16.73-3.28,0-4.78-.89-4.78-5.08A17.61,17.61,0,0,1,293,383c11.35,0,23.89-9.86,23.89-15.23,0-1.49-.9-3.58-5.08-3.58-7.47,0-19.41,8.36-24.19,16.43-5.38-2.69-3.28-10.16,6-16.13H285l-18.82,20c5.38-7.46,9.86-14,9.86-16.43a3.84,3.84,0,0,0-4.18-3.88c-3.58,0-15.53,7.77-21.21,14.63,10.45-9.26,18.82-12.84,19.71-12.84,1.79,0,1.19,1.79.3,3L251.82,394h7.47l22.1-23.3a9.85,9.85,0,0,0,5.67,11,10.57,10.57,0,0,0-1.79,5.67c0,4.48,4.18,7.17,8.66,7.17,5.67,0,13.74-4.78,21.5-11.35a11.14,11.14,0,0,0-1.19,4.78,6.66,6.66,0,0,0,6.87,6.57c4.78,0,11-3,16.43-7.17l-6.27,9.26c-1.2.6-2.39,1.5-3.89,2.09-22.4,12.54-40,23.59-40,32.55,0,3,1.79,5.08,5.67,5.08,9.86,0,25.09-14.34,41.81-37L339,394c11.35-6.27,18.21-10.75,24.49-17l-2.69,3.58c-7.47,10.16,0,13.14,3.28,13.14,4.18,0,9.26-3.58,14-8.06-1.49,5.08,1.5,8.06,5.38,8.06,4.48,0,11.35-4.78,17-9.86a8,8,0,0,0-.89,3.58c0,5.08,3.28,7.47,7.47,7.47,3.88,0,10.16-2.69,16.13-6.87a117,117,0,0,0,10.45-8.36L423.85,394h6.57l45.69-66c-2.69,2.69-19.72,26.89-37.93,45.4Zm-13.74-7.47c3.29,0,3,1.79,3,2.69,0,5.68-11,12.84-20.31,13.14,2.39-9,12.24-15.83,17.32-15.83Zm-116.48,0a3,3,0,0,1,3.29,3.29c0,6.87-11.95,12.24-17.92,12.54C295.72,372.5,304.08,365.93,308,365.93Zm17.32,25.39c-2.09,0-3.88-.3-3.88-4.78,0-9.26,10.75-20.91,18.82-20.91,5.38,0,6,3.59,6,5.38C346.19,381.76,331.56,391.32,325.29,391.32Zm-3.58,19.11c-9.26,13.14-20.91,25.09-28.07,25.09-1.79,0-3.29-.6-3.29-2.69,0-9.26,18.22-21.8,37.63-32.85.6-.3.9-.3,1.5-.6Z" fill="#a6a6a6"/><path d="M472.23,355.78H403.84l2.69-3.89c1.49,1.5,2.39,1.79,7.46,1.79,4.78.3,58.24,1.79,58.24,1.79C472.83,355.48,472.83,355.78,472.23,355.78Zm22.7,10.45c-2.39,1.79-9,12.24-21.5,12.24-4.18,0-7.17-2.39-7.17-6.57,0-10.45,15.53-18.52,26.88-18.52,5.38,0,14.93.89,14.93,13.14,0,16.13-15.23,26.88-30.46,26.88-10.45,0-16.73-4.18-29-4.18-14.93,0-20.31,7.17-22.1,11.65.89-2.09,6.27-9,20-9,9.55,0,17.62,4.48,27.48,4.48,16.13,0,38.23-14.64,38.23-30.16,0-8.06-4.78-14.64-16.73-14.64-14.64,0-32.55,11-32.55,21.8,0,2.69,2.39,7.17,9.85,7.17,11.36,0,20.31-11.95,22.11-14.33ZM351,418.8c0-3.28-1.5-2.69-1.5-3h9.86c7.77,0,9,6.57,9,8.66,0,5.08-5.07,8.06-9,8.06h-9.86s1.5.3,1.5-3Zm6-2.39h-1.19c-.6,0-.9.3-.9.6v13.14c0,.9.3,1.79,1.2,1.79h1.49c3.29,0,6.57-2.69,6.57-7.77,0-1.79-.9-7.77-7.17-7.77Zm30.16,5.67a5.92,5.92,0,0,1,9.86,4.48,6.37,6.37,0,0,1-6.57,6.27,4.5,4.5,0,0,1-3.29-1.19v5.08c0,2.69.9,2.39,1.2,2.39h-6s1.19.3,1.19-2.39V423.87c0-2.09-1.19-2.09-1.49-2.09l5.07-1.19v1.49Zm0,8.36a2,2,0,0,0,2.09,1.5c2.09,0,3.59-1.79,3.59-5.08s-1.79-5.08-3.29-5.08a3.69,3.69,0,0,0-2.39,1.2v7.46Zm29.87-.6c0,3,1.19,2.39,1.19,2.69h-6c.3-.3,1.19.3,1.19-2.69v-6.27c0-2.09-.89-2.09-1.19-2.09l4.78-1.19v9.55Zm-2.09-12.54c.89,0,1.79-.6,1.79-1.2s-.89-1.19-1.79-1.19-1.79.6-1.79,1.19S414,417.3,414.89,417.3Zm-4.78,13.44a1.05,1.05,0,0,0,1.19,1.19l-4.48.6V431a5.43,5.43,0,0,1-4.18,1.79c-4.48,0-4.18-3.28-4.18-5.07v-4.48c0-2.69-.9-2.39-1.2-2.39H402V429c0,2.69,1.5,3,1.79,3a3.33,3.33,0,0,0,3-1.79v-6.57c0-3-1.2-2.69-1.2-2.69h4.48v9.85ZM382,425.37h-9.26v.6c0,4.18,2.39,5.67,4.48,5.67a5.9,5.9,0,0,0,3.88-1.79,6,6,0,0,1-5.67,3.59,6.56,6.56,0,0,1-6.57-6.27c0-4.48,4.77-6.87,7.16-6.87C378.15,420.29,381.74,421.48,382,425.37Zm-6-4.18c-2.09,0-2.69,2.09-3,3.58h6A3.36,3.36,0,0,0,376.06,421.18Zm53.16,8.36c0,2.09-2.09,3.89-5.38,3.89a6.32,6.32,0,0,1-4.18-1.2v-2.09a4.24,4.24,0,0,0,3.88,2.69c1.5,0,2.69-.89,2.69-2.09s-1.5-1.79-3.28-2.69c-1.5-.6-3.89-1.2-3.89-3.89,0-2.09,2.09-3.58,5.38-3.58a7.72,7.72,0,0,1,3.89.89v2.09c-1.79-2.39-3.59-2.39-4.18-2.39a2,2,0,0,0-2.09,1.79c0,1.19.9,1.79,3.29,2.69.6.3,3.88,1.19,3.88,3.88Zm11,3.58c.3-.3.9-.3.9-2.39V418.2c0-2.39-.9-2.39-1.2-2.69l4.78-1.2v16.43c0,2.09.89,2.09,1.19,2.39h-5.67Zm24.79-.3a140.71,140.71,0,0,1,10.15-17.92H464.47a1.92,1.92,0,0,1-1.49-.6l-1.79,4.18a3.39,3.39,0,0,1,2.39-.89h7.77c-.6.89-3,5.38-5.67,9.55-1.79,3-2.69,4.78-3.29,5.67h2.69Zm-13.74,0a189.93,189.93,0,0,1,10.16-17.92H451a2.19,2.19,0,0,1-1.79-.6l-1.5,4.18a2.71,2.71,0,0,1,2.09-.89h7.77c-.6.89-3,5.38-5.38,9.55-2.09,3-3,4.78-3.59,5.67Zm26.58-.3c2.39,0,4.48-2.09,4.48-5.67,0-2.39-1.5-5.38-4.18-5.38a5.09,5.09,0,0,0-3.88,2.09l1.5-8.66H483a3.67,3.67,0,0,0,2.09-.6l-1.79,3.29h-6.87l-.9,4.18a8.07,8.07,0,0,1,4.48-1.49,6.24,6.24,0,0,1,6.27,6c0,4.18-3.88,6.87-8.06,6.87a12.32,12.32,0,0,1-4.77-.89l-.3-2.39c2.1,2.69,3.89,2.69,4.79,2.69ZM449.83,196l-2.69,1.19-21.5,20.61A7.65,7.65,0,0,0,420,216.6c-4.18.9-7.17,5.67-6.27,10.75a11,11,0,0,0,1.5,3.29l-66.31,66.9a13.66,13.66,0,0,0-12.54-4.48,12.86,12.86,0,0,0-7.17,4.48l-46-35.84a12.4,12.4,0,0,0,.89-7.47c-.89-6.27-6.27-10.45-11.65-9.26a9.26,9.26,0,0,0-3.88,1.79l-20.31-14.34-2.39-.3.9,2.69,17.92,17.92a12.12,12.12,0,0,0,0,5.67c.9,6.27,6.27,10.45,11.65,9.26a10.76,10.76,0,0,0,4.48-2.39c.6-.89.9-.89,1.19-.6,0,0,17,14.93,23,20s15.53,12.54,17.32,14a46.11,46.11,0,0,0,4.18,3.58,18,18,0,0,0-.6,9c1.79,8.66,9.26,14,16.73,12.54s12.24-9.56,10.45-18.22a14.09,14.09,0,0,0-1.79-4.48l65.41-68.39a7.53,7.53,0,0,0,6.57,1.79,8.5,8.5,0,0,0,6.27-10.45,4.32,4.32,0,0,0-.6-2.09l20-23.29.89-2.68Zm-175.62,66.6c-3.29.6-6.57-2.09-7.17-6-.6-4.18,1.49-7.77,4.78-8.66,3.29-.6,6.57,2.09,7.17,6A7.18,7.18,0,0,1,274.22,262.59Zm69.29,52c-3.28.6-6.27-1.79-6.87-5.38s1.49-6.87,4.48-7.47c3-.9,6,1.49,6.87,5.08.6,3.59-1.49,7.17-4.48,7.77Zm80.34-83.92c-2.69.6-5.38-1.49-6-4.78s1.19-6.27,3.88-6.87,5.38,1.49,6,4.78S426.54,230,423.85,230.64Z" fill="#a6a6a6"/><path d="M342.91,312.47c2.09-.3,3.28-2.69,3-5.08-.6-2.39-2.39-3.88-4.48-3.58s-3.28,2.69-3,5.08C339,311.28,340.82,313.07,342.91,312.47Z" fill="#a6a6a6"/></svg>