<svg id="9c8d9f76-05ad-4c74-9acc-8036b47340e7" data-name="Calque 1" xmlns="http://www.w3.org/2000/svg" viewBox="0 0 634.96 634.96"><title>Logos-Clients</title><path d="M409.06,336v-6c-3,2.51-8.53,2.51-13.56,3.51S386,336,386,342s4.52,7.53,10,7.53C408.56,349.54,409.06,339.5,409.06,336ZM200.16,322.93h26.62c-1.5-8-5-12.05-13.06-12.05C203.68,310.87,200.66,318.41,200.16,322.93Zm57.75,0h26.62c-1.51-8-5-12.05-13.06-12.05C261.42,310.87,258.41,318.41,257.91,322.93Zm114.5-2H356.34c-1-6.53-5-10-11.55-10-10.54,0-14.06,10-14.06,19.08,0,8,3.51,18.08,13.55,18.08,7.53,0,12.05-4.52,13.06-11.55H370.9c2.51-8,10.54-10.55,19.08-11.55,9.54-1.51,19.08-1,19.08-7.53,0-7-5-8-10.54-8-6,0-10,5-10.55,11.55H372.41Zm163.21,12.55H493.43c.5,10,5.53,14.56,14.56,14.56,6.53,0,11.55-4,12.55-7.53h14.06c-4.52,14.06-14.06,20.09-27.12,20.09-14.56,0-24.61-8-28.63-19.58-.5,14.56-13.56,19.58-26.61,19.58s-25.61-5-27.12-18.58v3.52c0,5.52.5,11,2,13.05H410.57a18.18,18.18,0,0,1-1-5.53c-5,5.53-12.56,7.53-19.59,7.53-10.54,0-18.58-5-20.09-15.06-4.52,9.54-13.56,15.06-25.61,15.06-15.06,0-25.61-9-28.62-22.6v20.59H299.59V333.47H257.91c.5,10,5.52,14.56,14.56,14.56C279,348,284,344,285,340.5h14.56C295.07,354.56,285,360.58,272,360.58c-17.07,0-28.12-11-29.63-27.12H200.16c.5,10,5.52,14.56,14.56,14.56,6.53,0,11.55-4,12.55-7.53h14.56c-4.52,14.06-14.56,20.09-27.62,20.09-18.58,0-30.13-13.05-30.13-31.13,0-17.58,12.55-31.14,30.13-31.14,16.57,0,26.11,12.05,28.12,26.11,2-15.07,13.56-26.11,29.63-26.11,15.06,0,24.61,10,27.62,22.6V277.73h16.07v44.7c2.51-14.06,13.05-24.11,29.13-24.11,12.56,0,24.61,6.53,27.12,19.08,2-15.57,15.07-19.08,27.12-19.08s26.11,3,26.11,17.07v24.1H440.2c0,7,6,10,12.05,10,5,0,10.54-2,10.54-7.53,0-5-6.53-6.53-18.08-9-9.54-2-18.58-5.52-18.58-15.57,0-15.06,13.05-19.08,25.61-19.08s24.61,4.52,25.61,19.08H462.3c-.5-6.53-5.53-8-11-8-3.52,0-9,.5-9,5.52,0,5.52,9,6.53,18.08,8.53,7,1.51,14.06,4,17.07,9.54v-3.51c0-17.58,12.05-31.14,30.13-31.14,19.58,0,29.63,17.07,28.12,35.15Zm-42.19-10.54h26.12c-1.51-8-5-12.05-12.56-12.05C496.44,310.87,493.43,318.41,493.43,322.93ZM175,282.75v17.58H187.1v9H175V340c0,5.53,1.5,6.53,7,6.53a19,19,0,0,0,5-.5v13.05c-3,0-6.53.5-9.54.5-10,0-18.58-2.51-18.58-14.06V309.37h-22.6v-7.53c-.5-9.54-7.53-12.05-15.57-12.05-6,0-12.56,2.51-12.56,9s4,7,24.1,12.05c6,1.5,24.1,5.52,24.1,23.6,0,15.06-11.55,26.11-33.65,26.11-18.08,0-34.65-8.53-34.65-28.62h17.58c0,10.54,8,15.06,17.58,15.06,6.53,0,16.07-2,16.07-10,0-9-12.05-10.55-24.1-13.56s-24.1-8-24.1-23.1c0-16.57,15.57-24.61,30.13-24.61,16.57,0,31.64,7,32.64,24.61h5V282.75H175Z" fill="#a6a6a6"/></svg>