<svg id="bd6b5fd7-e6cd-4f34-9bc1-07a17bcfdea4" data-name="Calque 1" xmlns="http://www.w3.org/2000/svg" viewBox="0 0 634.96 634.96"><title>Logos-Clients</title><path d="M125.41,401.51V402a2.64,2.64,0,0,0,2.72,2.88,2.56,2.56,0,0,0,2.88-2.72c0-3.52-7.2-3-7.2-7.84,0-2.88,2.08-4.32,4.64-4.32,3,0,4.64,1.44,4.48,4.64h-2.08c0-1.76-.64-2.88-2.56-2.88a2.25,2.25,0,0,0-2.4,2.4c0,3.52,7.2,2.88,7.2,8,0,3.36-2.4,4.48-5,4.48-4.64,0-4.64-3.68-4.64-5.12h1.92Zm14.71-11.19h2.08l3,13.75,3.2-13.75h2.72L154,404.06l3.2-13.75h2.24l-4.32,16h-2.4l-3-13.91-3.2,13.91H144l-3.84-16Zm29.1,16h-2.08v-16h2.08Zm11-4.8V402c0,2.08,1.28,2.88,2.56,2.88a2.56,2.56,0,0,0,2.88-2.72c0-3.52-7-3-7-7.84,0-2.88,1.92-4.32,4.64-4.32,2.88,0,4.48,1.44,4.32,4.64h-2.08c0-1.76-.48-2.88-2.4-2.88a2.3,2.3,0,0,0-2.56,2.4c0,3.52,7.2,2.88,7.2,8,0,3.36-2.24,4.48-5,4.48-4.64,0-4.64-3.68-4.64-5.12h2.08Zm17.75,0V402a2.64,2.64,0,0,0,2.72,2.88,2.56,2.56,0,0,0,2.88-2.72c0-3.52-7.2-3-7.2-7.84,0-2.88,2.08-4.32,4.64-4.32,2.88,0,4.64,1.44,4.48,4.64h-2.08c0-1.76-.64-2.88-2.56-2.88a2.25,2.25,0,0,0-2.4,2.4c0,3.52,7.2,2.88,7.2,8,0,3.36-2.4,4.48-5,4.48-4.8,0-4.8-3.68-4.64-5.12H198Zm25.1-11.19h2.24l3,13.75,3.2-13.75h2.56L237,404.06h.16l3.2-13.75h2.08l-4.16,16h-2.56l-2.88-13.91h-.16l-3.2,13.91h-2.4l-4-16Zm33.42,10.39h-5l2.4-8.47Zm-8.79,5.6h2.08l1.12-3.84h6.24l1.12,3.84h2.24l-5.12-16h-2.56l-5.12,16Zm27.82-16v1.76h-4.16V406.3h-2.08V392.07h-4.16v-1.76Zm14.71,4.32a3.35,3.35,0,0,0-.48-2.24,3,3,0,0,0-1.76-.64c-1.76,0-2.4,1-2.4,1.12-.16.32-.48.64-.48,3.36v4.32c0,3.84,1.28,4.32,2.88,4.32.64,0,2.4-.16,2.4-3.36h2.08c.16,5.12-3.36,5.12-4.48,5.12-1.92,0-5-.16-5-6.4v-4.48c0-4.48,1.92-5.76,5.12-5.76s4.32,1.6,4.16,4.64h-2.08Zm10.87,11.67v-16h2.08v6.88h5.6v-6.88h2.08v16h-2.08v-7.36h-5.6v7.36Zm19,0v-16h8.16v1.76h-6.08v5.12h5.6v1.76h-5.6v5.6h6.23v1.76h-8.31Zm18.07-4.8V402a2.64,2.64,0,0,0,2.72,2.88,2.56,2.56,0,0,0,2.88-2.72c0-3.52-7.19-3-7.19-7.84,0-2.88,2.08-4.32,4.64-4.32,3,0,4.64,1.44,4.48,4.64h-2.08c0-1.76-.64-2.88-2.56-2.88a2.25,2.25,0,0,0-2.4,2.4c0,3.52,7.2,2.88,7.2,8,0,3.36-2.4,4.48-5,4.48-4.64,0-4.64-3.68-4.64-5.12h1.91Zm28.46,0V402c0,2.08,1.28,2.88,2.56,2.88a2.56,2.56,0,0,0,2.88-2.72c0-3.52-7.2-3-7.2-7.84,0-2.88,2.08-4.32,4.8-4.32,2.88,0,4.48,1.44,4.32,4.64H372c0-1.76-.48-2.88-2.4-2.88a2.3,2.3,0,0,0-2.55,2.4c0,3.52,7.2,2.88,7.2,8,0,3.36-2.4,4.48-5,4.48-4.64,0-4.64-3.68-4.64-5.12h2.08Zm18.55,4.8h-2.08v-16h2.08Zm20.47-16v16h-2.88l-6.23-13.91V406.3h-1.92v-16h2.88l6.23,13.59V390.31h1.92Zm16.15,4.32a3.35,3.35,0,0,0-.32-2.24,3.06,3.06,0,0,0-1.92-.64,2.89,2.89,0,0,0-2.4,1.12,12,12,0,0,0-.32,3.36v4.32c0,3.84,1.28,4.32,2.72,4.32.64,0,2.56-.16,2.56-3.36h2.08c.16,5.12-3.52,5.12-4.48,5.12-1.92,0-5-.16-5-6.4v-4.48c0-4.48,1.92-5.76,5.12-5.76,3,0,4.32,1.6,4.16,4.64h-2.24Zm10.87,11.67v-16h8.32v1.76h-6.24v5.12h5.76v1.76h-5.76v5.6h6.24v1.76h-8.32Zm31.66,0h-1.92V393.19l-2.39,1.44v-1.92a9.09,9.09,0,0,0,2.55-1.76h1.76V406.3Zm13.91-1.44c-1.44,0-2.08-1.44-2.08-2.72,0-1.44.16-3.2,2.08-3.2s2.08,1.76,2.08,3.2C480.4,403.43,479.92,404.87,478.32,404.87Zm0-7.68c-1.44,0-1.92-1.6-1.92-2.72a1.94,1.94,0,1,1,3.83,0C480.24,395.59,479.92,397.19,478.32,397.19Zm1.28,1a3.5,3.5,0,0,0,2.72-3.68,3.66,3.66,0,0,0-4-3.84,3.53,3.53,0,0,0-3.84,3.84c0,1.76.8,3.36,2.56,3.68-2.24.16-2.72,1.92-2.72,4,0,2.72,1.44,4.48,4,4.48,2.72,0,4.16-1.76,4.16-4.48,0-2.08-.64-3.84-2.87-4Zm17.75-7.2v1.76h-5.12v4.48a2.89,2.89,0,0,1,2.4-1.12c2.24,0,3.2,1.6,3.2,5.12,0,2.4-.32,5.44-4.16,5.44-3.2,0-3.68-1.76-3.68-3.84h1.92c0,1.12.48,2.24,1.92,2.24,1.92,0,1.92-1.76,1.92-3.36,0-2.24,0-4-1.92-4-1.12,0-1.6.8-1.92,1.92h-1.76V391h7.2Zm10.55,6.4c1.92.16,3.2-.64,3.2-2.56,0-1.44-.64-2.4-2.08-2.4-1.76,0-2.08,1.28-1.92,2.56H505c-.16-2.72,1.12-4.32,4-4.32a3.62,3.62,0,0,1,4,4,3.23,3.23,0,0,1-2.88,3.52v.16c2.4.32,3,1.6,3,3.84,0,3-1.6,4.48-4.48,4.48-4.32,0-4-3.68-4-4.64h2.08c0,1.6.32,2.88,2.08,2.88s2.4-1.12,2.4-2.72c0-2.56-1-3-3.36-3v-1.76h0Z" fill="#a6a6a6"/><path d="M315.86,286.22V228.65H257.17v57.56h58.68Z" fill="#727272"/><path d="M308.5,236.33H265v9.75h15.35v33.1h13.11v-33.1h15v-9.75Z" fill="#fff"/><path d="M194.65,304H123.34v14.87h25.58v49.25h20.63V318.84h25.1Zm27.18,64.12V304H201v64.12ZM513.66,304H442.34v14.87h25.74v49.25h20.46V318.84h25.11V304ZM370.55,335.79c0-22.23,16.63-33.26,37.1-33.26s37.1,12.47,37.1,33.26c0,21.11-16.63,33.42-37.1,33.42s-37.1-9.59-37.1-33.42Zm37.1,22.07c10.87,0,16-9.91,16-22.07s-5.92-21.91-16-21.91c-11.67,0-16.31,9.75-16.31,21.91S396.13,357.85,407.64,357.85Zm-44.29-33.26H344.8a13,13,0,0,0-5.28-8c-3.68-2.4-7.83-2.56-11.83-1.6-3.2.8-6.55,3.52-5.27,7,.8,2.24,3,3.2,5.27,3.84,10.23,2.72,20.63,3.36,29.9,9a14.93,14.93,0,0,1,7.2,12.79c-.32,21.75-27,24.47-44.46,20.95-11.19-2.4-21.9-10.55-20.95-22.87h19.35c1.28,2.72.8,5.43,2.56,7.83a10.1,10.1,0,0,0,3.52,3.36,32,32,0,0,0,3.36,1.6,16.86,16.86,0,0,0,9.75-.16,8.57,8.57,0,0,0,5.28-4.48,5.71,5.71,0,0,0,0-4,5.32,5.32,0,0,0-1.12-2.08c-1.44-2.4-4.16-3-6.71-3.84-11.36-3.52-26.23-2.08-32.46-14.07a16.7,16.7,0,0,1-1-11.52c.64-2.72,2.56-5.12,4.48-7a25.58,25.58,0,0,1,6.4-4.48c12-5.44,25.91-5,37.58.16,6.88,3.2,12.63,9.6,13,17.59Zm-70.68-.16H274.28c-1-3.36-2.56-6.24-5.44-8.16A14.68,14.68,0,0,0,257,314.84c-3.2.8-6.56,3.36-5.28,7,.8,2.08,3,3,5.28,3.68,10.23,2.72,20.63,3.36,30.06,9a14.78,14.78,0,0,1,7,12.79c-.32,21.91-27,24.47-44.29,20.95-11.35-2.24-21.91-10.56-21.11-22.87h19.51c1.12,2.72.64,5.44,2.4,7.84a11.55,11.55,0,0,0,3.52,3.36,14.08,14.08,0,0,0,3.52,1.6,17.79,17.79,0,0,0,9.59,0,8.9,8.9,0,0,0,5.28-4.64,5.71,5.71,0,0,0,.16-4c-.32-.8-.8-1.44-1.12-2.08-1.6-2.4-4.32-2.88-6.88-3.68-11.19-3.68-26.22-2.24-32.46-14.07a16.7,16.7,0,0,1-1-11.51,14.11,14.11,0,0,1,4.48-7,26.17,26.17,0,0,1,6.4-4.64c12-5.44,25.9-4.8,37.58.32,7,3,12.79,9.43,13,17.59Z" fill="#a6a6a6"/><path d="M381.42,286.38v-58H322.73v58Z" fill="#a6a6a6"/><path d="M373.58,250.88h-15V236H345.76v14.87h-15v12.79h15v14.87h12.79V263.67h15Z" fill="#fff"/></svg>