<svg id="0fa69cfd-87c3-4d22-8d85-010b12c4cfc6" data-name="Calque 1" xmlns="http://www.w3.org/2000/svg" viewBox="0 0 634.96 634.96"><title>Logos-Clients</title><path d="M150.37,425.48h0V222.38H495.53V425.48Zm4-2.18H491.48V224.57H154.42Z" fill="#727272"/><polyline points="339.02 377.99 339.02 377.99 339.02 344.96 307 344.96 307.04 224.71 153.73 224.71 153.73 377.99" fill="#727272"/><polyline points="492.3 377.99 492.3 377.99 492.3 224.71 307.04 224.71 307.04 257.78 339.02 257.78 339.02 377.99" fill="#a6a6a6"/><path d="M269.25,326.64h0l-3.94,14.29c-8.06,3.9-17.62,5.4-26.65,5.4h0c-28.79,0-50.6-16.6-50.6-42.38h0c0-32.83,24.23-47.78,53.58-47.78h0c8.89,0,19.65,2.13,27.48,6.17h0c-1.25,4.27-2.53,10.7-3.64,15.08h0l-1.38-2.15a28.63,28.63,0,0,0-22.33-11.57h0c-22.35,0-31.35,20-31.35,38.48h0c0,21.54,11.33,36.62,32.05,36.62h0c8.3,0,18-4,24-9.42" fill="#fff"/><path d="M454.88,326.77h0L451,341.06c-8.06,3.88-17.61,5.4-26.65,5.4h0c-28.79,0-50.59-16.64-50.59-42.41h0c0-32.8,24.23-47.77,53.57-47.77h0c8.86,0,19.66,2.12,27.44,6.17h0c-1.21,4.26-2.49,10.68-3.59,15.08h0l-1.39-2.13a28.68,28.68,0,0,0-22.35-11.57h0c-22.32,0-31.32,20-31.32,38.48h0c0,21.54,11.28,36.6,32,36.6h0c8.35,0,18-4,24.1-9.42" fill="#fff"/><polygon points="307.03 344.97 307.03 344.97 339.02 344.97 339.02 257.78 307.03 257.78 307.03 344.97" fill="#8e8e8e"/><path d="M163.8,399.2h0v-4.56h1.77c2,0,2.77.94,2.77,2.26h0c0,1.26-.77,2.3-2.77,2.3m-7.85,10.16H169.3c3.23,0,5.37-2.11,5.37-4.93h0c0-2.24-1.19-3.7-3.77-4.61h0c1.83-.81,2.73-2,2.73-3.63h0c0-2-1.39-4.21-5.74-4.21H157.71Zm6.08-2.63h0v-4.87h2c2,0,2.94.89,2.94,2.34h0c0,1.72-1.08,2.54-3.08,2.54H163.8Z" fill="#727272"/><path d="M207.54,409.37h6l1.14-2.82h7.86l1.14,2.82h6.06L221.83,392h-6.37M216,403.4h0l2.7-6.88,2.63,6.88Z" fill="#727272"/><polyline points="264.44 391.98 264.44 391.98 269.63 391.98 278.42 400.9 278.08 391.98 284.27 391.98 284.27 409.37 279.04 409.37 270.25 400.45 270.6 409.37 264.44 409.37" fill="#727272"/><path d="M340.5,410.59h0a31.8,31.8,0,0,1-5.81-2.38h0a8.23,8.23,0,0,0,4.49-7.45h0c0-4.62-3.14-9-9.83-9h0c-6.78,0-9.58,4.62-9.58,8.83h0c0,3.93,2.22,7.14,6.68,9.59h0a50.44,50.44,0,0,0,10.08,4.06m-10.66-13.46h0c0-2.37,1.41-3.92,3.56-3.92h0a3.58,3.58,0,0,1,3.68,3.87h0c0,2.34-1.42,3.87-3.61,3.87h0A3.56,3.56,0,0,1,325.87,400.79Z" fill="#727272"/><path d="M392.73,401.39h0c0,5.1-3.15,8.23-9.2,8.23h0c-6,0-9.42-2.85-9.42-7.58h0V392h6.08v9.3c0,2.43,1.28,3.61,3.19,3.61h0c1.87,0,3.25-1.17,3.25-3.92h0v-9h6.09" fill="#727272"/><polyline points="428.31 391.98 428.31 391.98 441.35 391.98 441.35 395.65 434.4 395.65 434.4 398.72 440.76 398.72 440.76 402.39 434.4 402.39 434.4 405.7 441.46 405.7 441.46 409.37 428.31 409.37" fill="#727272"/><path d="M476.37,403.69h0a8.59,8.59,0,0,0,4.74,1.74h0c1.15,0,1.73-.51,1.73-1.2h0c0-1.89-6.48-2.15-6.48-7.26h0c0-2.18,1.53-5.21,6.17-5.21h0a8.57,8.57,0,0,1,5.47,1.85h0v4.59c-1.66-1.55-3-2.28-4.33-2.28h0c-1,0-1.7.46-1.7,1.2h0c0,2.13,6.71,2.35,6.71,7.3h0c0,2.49-1.77,5.18-6.3,5.18h0a14.34,14.34,0,0,1-6-1.2" fill="#727272"/></svg>