<svg id="SvgjsSvg1045" xmlns="http://www.w3.org/2000/svg" version="1.1" xmlns:xlink="http://www.w3.org/1999/xlink" xmlns:svgjs="http://svgjs.com/svgjs" width="310" height="283" viewBox="0 0 310 283">
<path id="SvgjsPath1047" d="M407.86 4645.39L398.17 4654.81C399.28000000000003 4658.47 399.85 4662.27 399.85 4666.09C399.85 4691.67 370.66 4728.53 359.12 4742.1C347.59000000000003 4728.530000000001 318.4 4691.67 318.4 4666.09C318.34999999999997 4653.63 324.28 4641.860000000001 334.41999999999996 4634.31C344.54999999999995 4626.77 357.71 4624.31 369.96999999999997 4627.68L380.01 4618.1900000000005C363.59999999999997 4611.320000000001 344.76 4612.9800000000005 329.86 4622.610000000001C314.96000000000004 4632.240000000001 306 4648.55 306 4666.030000000001C306 4700.76 348.40999999999997 4748.68 353.96 4754.830000000001L364.31 4754.830000000001C369.88 4748.6900000000005 412.27 4700.760000000001 412.27 4666.030000000001C412.27 4658.93 410.76 4651.900000000001 407.85999999999996 4645.39Z " fill="#e30613" fill-opacity="1" transform="matrix(1,0,0,1,-235,-4484)"></path>
<path id="SvgjsPath1048" d="M481.51 4610.79L459.7 4595.21L450.78 4603.88L471.61999999999995 4618.78L471.61999999999995 4754.759999999999L364.66999999999996 4754.759999999999L364.09999999999997 4755.379999999999C362.91999999999996 4756.65 361.24999999999994 4757.379999999999 359.49999999999994 4757.379999999999C357.73999999999995 4757.379999999999 356.06999999999994 4756.65 354.88999999999993 4755.379999999999L354.31999999999994 4754.749999999999L247.36999999999995 4754.749999999999L247.36999999999995 4618.799999999999L359.49999999999994 4538.599999999999L419.40999999999997 4581.44L428.51 4572.889999999999L363.15999999999997 4526.15C360.98999999999995 4524.62 358.05999999999995 4524.62 355.89 4526.15L237.54 4610.799999999999C235.95 4611.94 235 4613.7699999999995 235 4615.709999999999L235 4760.849999999999C235 4764.209999999999 237.78 4766.929999999999 241.2 4766.929999999999L477.87 4766.929999999999C481.3 4766.929999999999 484.08 4764.209999999999 484.08 4760.849999999999L484.08 4615.7C484.07 4613.75 483.12 4611.929999999999 481.51 4610.79Z " fill="#e30613" fill-opacity="1" transform="matrix(1,0,0,1,-235,-4484)"></path>
<path id="SvgjsPath1049" d="M354.45 4667.83C353.53999999999996 4665.7 354.03999999999996 4663.24 355.71 4661.61L446.44 4572.42L443.86 4537.65C443.73 4535.969999999999 444.37 4534.32 445.61 4533.139999999999L494.51 4486.61C496 4485.19 498.15 4484.66 500.14 4485.21C502.14 4485.76 503.69 4487.31 504.21 4489.27L511.40999999999997 4516.570000000001L539.87 4523.530000000001C541.88 4524.030000000001 543.48 4525.540000000001 544.05 4527.490000000001C544.62 4529.450000000001 544.0899999999999 4531.56 542.64 4533.02L495.12 4580.910000000001C493.93 4582.110000000001 492.27 4582.740000000001 490.56 4582.630000000001L454.69 4580.410000000001L363.93 4669.620000000001C362.86 4670.710000000001 361.38 4671.330000000001 359.84000000000003 4671.35C357.48 4671.360000000001 355.35 4669.97 354.45000000000005 4667.83ZM457.91 4569.25L488.65000000000003 4571.15L527.24 4532.25L505.25 4526.86C503.17 4526.36 501.54 4524.78 501.01 4522.75L495.40999999999997 4501.61L455.65999999999997 4539.44Z " fill="#e30613" fill-opacity="1" transform="matrix(1,0,0,1,-235,-4484)"></path>
</svg>