<svg id="3b26c145-2192-4dc5-a4ac-5aab91c1c8ae" data-name="Calque 1" xmlns="http://www.w3.org/2000/svg" viewBox="0 0 634.96 634.96"><title>Logos-Clients</title><path d="M310,296.07h20.65c15,0,15.5-15.9,2.13-16.44-.5-.05-.6-1,.39-1.14,9.66-.1,11.69-14.56-6.24-14.66H310Zm10.35-29.77h4.75c8.22.05,8.17,11.54-.1,11.64h-4.65Zm0,14.56H325c3.91,0,6.84,1.29,7.78,3.37a7,7,0,0,1,.05,5.65c-1,2.08-3.87,3.42-7.83,3.42h-1.88c-.94-.05-2.58.15-2.73-1.49V280.86h0Zm-28.33-17.19h12.68v33H292.07v-2.08h3c1.29,0,2.13.15,2.13-2.08V267.94c0-2.23-.79-2.18-2.13-2.18h-3v-2.08Zm-11.24,36h6.29l1.74,1.54v9.26h-5v-7.83h-2l-1.09-1.43v-1.54h0Zm33.73,0-1.68,2V303h3.91a1.33,1.33,0,0,1,1.44-1.34h8.57v2.18h-4.9v1.83h4.9v2.57h-8.57a1.32,1.32,0,0,1-1.44-1.34h-3.91v1.34l1.68,2.18h14.76a2.92,2.92,0,0,0,2.48-3.91c-.6-1.88-.94-1.88,0-3.51s-.64-3.37-2.48-3.37Zm21.25,0h18.28v1.54H340v2h9.26c6.49,0,6.44,7.13.1,7.18l-11.24.1L335.81,309v-1h12.83a1.44,1.44,0,0,0,0-2.87H335.81v-5.55Zm-43.74,0h17.68v3l-7.43,7.83h-5.75V309l6.59-6.44h-11.1v-3ZM93.24,319v2.38H97.1a3.3,3.3,0,0,1,3.27,3.27v34.62a2.92,2.92,0,0,1-3.27,3.12H93.24v3h37c21.55,0,22.34-22.88,3-23.67-.69-.05-.84-1.39.59-1.54,13.92-.15,16.79-21.05-9-21.15Zm262.58,10.05h25c9.91,0,18.57.2,18.53,10.16-.05,7.82-10.6,10.2-14.66,10.2H373.85v10.95c0,2,2.38,3.31,4.65,3.31h2.28v1.64h-25v-1.64h3.62a3.5,3.5,0,0,0,3.36-3.31V334.7a3.24,3.24,0,0,0-3.36-3.36h-3.62v-2.28h0Zm61,12-4.65,9.61h10.7l-6-9.61Zm-199.57,0-4.71,9.61h10.7ZM115.38,322.57h6.84c11.84.09,11.79,16.59-.1,16.79l-6.74-.05V322.57Zm38.44,5.89h25.91v2.23h-4.11c-1.68,0-3.52-.2-3.52,2.33v26.1c0,2.23,2,1.93,3.52,1.93H184c4.11,0,7.08-4.11,9.31-9.86l2.18.64-2.18,13.52H153.82v-2.18h3.72c1.29,0,3.17-.84,3.17-2.13V333c0-1.39-1.64-2.33-3.17-2.33h-3.72v-2.24Zm220,3.91v13.33h6.93c9.12,0,8.82-13.33,0-13.33Zm75.39-4h25.06v1.88h-2.82c-1.88,0-3.86,1.14-3.86,3.27v27.34c0,2.08,1.39,2.18,3.86,2.18h2.82v2.28H449.24v-2.23h3.52c1.63,0,3.32-1.14,3.32-2.23V333.57a3.27,3.27,0,0,0-3.32-3.27h-3.52Zm-104-1.09,1.54.05.2,12.88-1.93.24c-5-8.17-10.25-8.92-14.91-9-21.3-.49-17.34,48.05,16.69,23.68l-.1,5.65a40.11,40.11,0,0,1-19.32,4.46c-34.77-.15-28.88-47,12.34-36.11,2.53.84,4.31.25,5.5-1.83Zm133-9.41h20.6l29.72,25.31V322.67c0-1.93-1.58-3-4.11-3h-3.32v-1.74h20.56v1.74h-2.77c-2.78,0-4.21,1-4.21,3v42.7h-2.38l-40.72-35.86v28.78c0,2.23,1.54,4.36,3.72,4.36h4.81v2.72H477.68v-2.72h3.42a4.35,4.35,0,0,0,4.65-4.36V323.81c0-2-2.58-3.07-4.65-3.07h-2.82v-2.82h0ZM248.58,328.17h16.15L288.06,348v-16c0-1.54-1.24-2.43-3.27-2.43h-2.58v-1.33h16.1v1.33h-2.18c-2.18,0-3.27.79-3.27,2.43v33.43H291l-31.9-28.09v22.54c0,1.74,1.19,3.42,2.87,3.42h3.76v2.13H248.09v-2.13h2.72a3.38,3.38,0,0,0,3.62-3.42v-27c0-1.58-2-2.43-3.62-2.43h-2.23v-2.23Zm169.26-.05h2.92l21,32.94c.55.89,1.24,2.13,2.53,2.13H446v2.18H422.34v-2.18h4.31c2.08,0,2.78-1.88,1.49-3.91l-3.32-5.1H410.5l-3.07,5.1c-.74,1.29.84,3.91,2.18,3.91h3.72v2.18H397v-2.18h1.83a3.49,3.49,0,0,0,2.77-2.13l16.2-32.94Zm-199.57,0h2.87l21,32.94c.54.89,1.24,2.13,2.53,2.13h1.78v2.18H222.77v-2.18H227c2.08,0,2.77-1.88,1.49-3.91l-3.32-5.1H210.88l-3.07,5.1c-.74,1.29.84,3.91,2.18,3.91h3.76v2.18H197.41v-2.18h1.88a3.5,3.5,0,0,0,2.73-2.13l16.24-32.94Zm-102.83,15.4h6.64c5.65,0,9.86,1.83,11.19,4.85a10.3,10.3,0,0,1,.1,8.13c-1.43,3-5.55,4.9-11.29,4.9h-2.67c-1.39-.1-3.76.2-4-2.13V343.52Z" fill="#a6a6a6"/></svg>