<svg id="f9ea11a9-1dd8-48b5-a1b0-e388775d7cb7" data-name="Calque 1" xmlns="http://www.w3.org/2000/svg" viewBox="0 0 634.96 634.96"><title>Logos-Clients</title><path d="M268.39,263.44c0-3.4.49-8.79-3.69-10.19V253h15.64v.23c-4.09,1.4-3.6,6.79-3.6,10.19v38.65c0,7.54-6.31,15.31-18.35,16.5v-.21c9.3-4.54,10-9.68,10-17.66Z" fill="#a6a6a6"/><path d="M325.28,263.43c0-3.4.57-8.79-3.61-10.18V253h15.55v.23c-4.1,1.39-3.6,6.85-3.6,10.18v27.8c0,3.32-.5,8.71,3.6,10.11v.21H321.67v-.21c4.1-1.34,3.61-6.79,3.61-10.11Z" fill="#a6a6a6"/><path d="M345.47,253.09h0c9.46.46,17,11.12,17,24.21s-7.57,23.77-17,24.21h0c14.57-.29,26.27-11,26.27-24.21s-11.7-23.93-26.27-24.22" fill="#a6a6a6"/><polygon points="290.77 242.17 298.48 245.99 300.29 237.57 302.1 245.99 309.79 242.17 304.36 248.83 312.15 252.47 303.56 252.36 305.57 260.74 300.29 253.93 295.01 260.74 297.02 252.36 288.42 252.47 296.22 248.83 290.77 242.17" fill="#a6a6a6"/><polygon points="290.77 312.4 298.48 308.57 300.29 316.99 302.1 308.57 309.81 312.4 304.36 305.73 312.15 302.1 303.56 302.2 305.57 293.84 300.29 300.63 295.01 293.84 297.03 302.2 288.42 302.1 296.22 305.73 290.77 312.4" fill="#a6a6a6"/><path d="M94,340.76c3.49,1.14,3.08,5.53,3.08,8.3v30.42c0,6.5-.75,10.12-8.35,14.41v.17c10-1,15.32-4.46,15.32-10.84V349.06c0-2.77-.41-7.16,3-8.3v-.18H94Z" fill="#a6a6a6"/><path d="M150.39,372.25,138,341.34H126.67v.18c3.28.9,2,3.44,1,5.61l-10.11,25.12c-1.5,3.43-2.66,6.8-6.63,8.56V381H123.7v-.17c-3.28-1.09-2.8-2.84-1.37-6.21l2.87-7.88h15.62l3,7.88c1.84,4.22,2.38,4.88-1,6.21V381h15.58l-1.3-.17c-3.89-1.75-5.13-5.12-6.7-8.56M127.08,362l6-15.7,6,15.7Z" fill="#a6a6a6"/><path d="M254.52,341.56l-.07-.22h-13v.22c3.42,1.29,3,6.29,3,9.37v15.15c0,2.46.06,4.17-1.44,6.22a12.1,12.1,0,0,1-10,4.79c-7,0-10.88-4.24-10.88-13.34V350.93c0-3.08-.4-8.08,3-9.37v-.22h-13v.22c3.5,1.29,3,6.29,3,9.37v12.82c0,4.93-.14,9.51,3.49,13.47,3.08,3.36,7.86,4.78,12.37,4.78,4.79,0,10.4-1.64,13.42-5.61v4.52h10v-.22c-3.49-1.29-3.08-6.28-3.08-9.36V351c0-3.15-.41-8.15,3.08-9.44" fill="#a6a6a6"/><path d="M285.2,376l-9.18-.83V362h5.55c2.12,0,5-.08,6.09,1.9h.21v-7.25h-.21a6.87,6.87,0,0,1-3,.42H276V346.75a44,44,0,0,1,7.48-.49c3.15,0,5.94.28,8.06,2.74h.21v-8h-.21a7.11,7.11,0,0,1-3.22.33H266v.21c3.49,1.29,3.08,5.54,3.08,11.67v21.11c0,.09.41,5.15-3.08,6.39v.2h29l3.08-9h-.21a17,17,0,0,1-12.65,4" fill="#a6a6a6"/><path d="M335.21,341.37h-27.6a10.79,10.79,0,0,1-2.62-.48h-.18L302.4,349h.21a11.87,11.87,0,0,1,8.13-2.74h6.39v25c0,3.07.41,8.06-3,9.36v.2h13.18v-.2c-3.63-2.11-3.2-4.78-3.2-8.68V346.29h6.18c2.26,0,5,.34,5.88,2.74h.21l2.2-8.14h-.21a7.72,7.72,0,0,1-3.14.48" fill="#a6a6a6"/><path d="M541.18,372.18c-4.24,2.54-8.55,4-13.54,3.76l-14.35-.82,23-33.77H506l-3.49,7.87h.2c3.57-2.34,6-3.22,10.26-2.94l11.63.68-23.11,33.9h36l3.83-8.69Z" fill="#a6a6a6"/><path d="M475.92,340.46c-12.57-.3-22.44,9.22-22.44,20.59,0,12.27,10,20.76,21.84,20.76s22-8.85,22-21.06c0-10.78-8.85-20.35-21.42-20.29m-.3,37c-9.08,0-14.69-8.79-14.69-16.94,0-9.36,5.85-15.65,14.57-15.65,9.34,0,14.39,8.83,14.39,17.13,0,9.26-5.72,15.46-14.27,15.46" fill="#a6a6a6"/><path d="M203.64,360.75c0-10.78-8.86-20.35-21.42-20.29-12.56-.3-22.45,9.22-22.45,20.58,0,12.27,10,20.76,21.85,20.76a23.33,23.33,0,0,0,5.75-.71c5.42,4.25,14,10.69,20.14,10.69a12.36,12.36,0,0,0,7.61-2.75c-7.47,0-14.7-5.47-20.85-11a20.5,20.5,0,0,0,9.36-17.32m-36.41-.26c0-9.36,5.86-15.65,14.57-15.65,9.35,0,14.39,8.83,14.39,17.13,0,9.26-5.74,15.46-14.28,15.46-9.07,0-14.69-8.79-14.69-16.94" fill="#a6a6a6"/><path d="M380,341.38H363.27v.21c3.49,1,3,6,3,9.17V371c0,4,.41,7.31-3,9.64v.21h16.42c14.11,0,25.13-8.26,25.13-20S394.69,341.38,380,341.38m-1.78,35a24,24,0,0,1-5-.47v-29.3a27.31,27.31,0,0,1,6.16-.75c10.66,0,17.61,5.25,17.61,15.71s-9.46,14.81-18.77,14.81" fill="#a6a6a6"/><path d="M441.67,371.95l-7.23-9.85c5.88-1.51,10.82-5.63,10.82-10.95s-6.23-9.77-14.86-9.77h-18v.21c3.48,1.3,3,6.29,3,9.45v20.1c0,3.07.47,8.13-3,9.36v.21h13.07v-.21c-3.5-1.23-3.09-6.22-3.09-9.36V345.8a63.44,63.44,0,0,1,6.43-.54c4.58-.2,9.7,1.47,9.7,7s-7.81,7.63-13.56,8.55l7.45,9.31,5.88,7.39c2.06,2.53,4.81,3.42,8.44,3.42h5.74a44.07,44.07,0,0,1-10.76-8.94" fill="#a6a6a6"/></svg>