<svg id="9e36b19d-ba3d-4705-bddb-1af8ae4f40cd" data-name="Calque 1" xmlns="http://www.w3.org/2000/svg" xmlns:xlink="http://www.w3.org/1999/xlink" viewBox="0 0 634.96 634.96"><defs><clipPath id="2a3ac222-5271-418e-9f37-f3f328d5a862"><rect x="97.28" y="215.16" width="467.23" height="203.52" fill="none"/></clipPath></defs><title>Logos-Clients</title><g clip-path="url(#2a3ac222-5271-418e-9f37-f3f328d5a862)"><path d="M128.94,341.08a1.51,1.51,0,0,0-1.5,1.41v35.16a1.51,1.51,0,0,0,1.5,1.4H129a.34.34,0,0,1,.34.35v.39a.35.35,0,0,1-.34.35h-7.72a.35.35,0,0,1-.34-.34v-.4a.34.34,0,0,1,.34-.35h.05a1.5,1.5,0,0,0,1.51-1.51v-15.1a1.7,1.7,0,0,0-1.2-1.71H105a1.68,1.68,0,0,0-1.19,1.61v15.33a1.49,1.49,0,0,0,1.49,1.4h.05a.35.35,0,0,1,.34.35v.39a.36.36,0,0,1-.34.35H97.63a.35.35,0,0,1-.35-.34v-.4a.35.35,0,0,1,.35-.35h.05a1.51,1.51,0,0,0,1.51-1.51v-35a1.51,1.51,0,0,0-1.51-1.51h-.05a.36.36,0,0,1-.35-.35v-.4a.35.35,0,0,1,.35-.34h7.72a.34.34,0,0,1,.34.34v.39a.35.35,0,0,1-.34.35l-.05,0a1.49,1.49,0,0,0-1.49,1.41v14.21a1.62,1.62,0,0,0,1.39,1.62h16.23a1.65,1.65,0,0,0,1.4-1.73v-14a1.51,1.51,0,0,0-1.51-1.51h-.05a.35.35,0,0,1-.34-.35v-.4a.34.34,0,0,1,.34-.34H129a.33.33,0,0,1,.34.34v.39a.34.34,0,0,1-.34.35l-.05,0m40.48,38a.34.34,0,0,1,.34.35v.39a.35.35,0,0,1-.34.35h-9.24a.35.35,0,0,1-.34-.35v-.39a.35.35,0,0,1,.34-.35h.61a1.14,1.14,0,0,0,1-1.63L157.64,365l-.13-.37a1.67,1.67,0,0,0-1.74-1.23h-7.38a1.69,1.69,0,0,0-1.74,1.23l-.12.37-4.11,12.42a1.14,1.14,0,0,0,1,1.63H144a.34.34,0,0,1,.34.35v.39a.35.35,0,0,1-.34.35h-9.32a.35.35,0,0,1-.34-.35v-.39a.35.35,0,0,1,.34-.35h.83c1.94,0,2.59-2.49,2.59-2.49l12.25-36.42v-.06a1.73,1.73,0,0,1,1.55-1.12,1.66,1.66,0,0,1,1.58,1.12l0,0,12.71,36.77s.51,2.18,2.46,2.18h.82m-14.48-19a.81.81,0,0,0,.76-.92c0-.92-3.25-10.26-3.25-10.26s-.23-.62-.55-.62-.51.23-.62.62L148,359.19s-.14.86.86.86h6.11m56.5,15.84c.46.57-.83,1.93-.83,1.93a7.29,7.29,0,0,1-7,2.08s-3.55-.84-7.92-6.15c-4.08-5-7.15-10.91-11-13.1-.9-.51-1.54-.89-2-1.15v18.14a1.49,1.49,0,0,0,1.5,1.4h.05a.35.35,0,0,1,.34.35v.39a.36.36,0,0,1-.34.35h-7.73a.35.35,0,0,1-.35-.34v-.4a.34.34,0,0,1,.35-.35h.05a1.51,1.51,0,0,0,1.51-1.51V343.29a2.47,2.47,0,0,0-2.54-2.25.35.35,0,0,1-.35-.34v-.4a.35.35,0,0,1,.35-.34h12.14s13.33-1.06,13.33,12.1c0,0-.16,7.67-8.82,9.49,0,0,8.43,13.59,12.93,15.71a3.2,3.2,0,0,0,2.09.36c1.54-.21,2-1.15,2.86-1.72,0,0,.77-.66,1.31,0m-28.7-20.42a9.36,9.36,0,0,0,7.17,3.27c4.07,0,6.68-2.91,6.68-8,0-8.41-8.52-8.12-8.52-8.12h-5.33v12.86m69.05,20.42c.48.57-.83,1.93-.83,1.93a7.28,7.28,0,0,1-7,2.08s-3.54-.84-7.92-6.15c-4.09-5-7.15-10.91-10.95-13.1l-2-1.15v18.14a1.5,1.5,0,0,0,1.5,1.4h.06a.35.35,0,0,1,.34.35v.39a.36.36,0,0,1-.34.35h-7.73a.36.36,0,0,1-.35-.34v-.4a.35.35,0,0,1,.35-.35H217a1.5,1.5,0,0,0,1.5-1.51V343.29A2.46,2.46,0,0,0,216,341a.35.35,0,0,1-.35-.34v-.4a.35.35,0,0,1,.35-.34h12.13s13.34-1.06,13.34,12.1c0,0-.15,7.67-8.8,9.49,0,0,8.43,13.59,12.92,15.71a3.22,3.22,0,0,0,2.1.36c1.54-.21,2-1.15,2.86-1.72,0,0,.77-.66,1.3,0m-28.7-20.42a9.42,9.42,0,0,0,7.17,3.27c4.08,0,6.69-2.91,6.69-8,0-8.41-8.52-8.12-8.52-8.12h-5.34v12.86M284.7,340h-7.09a.35.35,0,0,0-.34.35v.4a.34.34,0,0,0,.34.34h1.45c.66,0,.49.3,0,1.08l-10.35,14.67c-.29.3-.55-.07-.55-.07h0l-10.53-14.49c-.6-.83-.93-1.24-.29-1.24h1.84a.35.35,0,0,0,.35-.35v-.4a.34.34,0,0,0-.35-.34h-9.69a.34.34,0,0,0-.34.34v.4a.34.34,0,0,0,.34.35h.41a2.31,2.31,0,0,1,1.69.88l12.86,17.79a2.68,2.68,0,0,1,.36,1.39v16.42a1.5,1.5,0,0,1-1.51,1.51h-.05a.34.34,0,0,0-.34.35v.4a.34.34,0,0,0,.34.34h7.72a.36.36,0,0,0,.35-.35v-.39a.35.35,0,0,0-.35-.35h0a1.51,1.51,0,0,1-1.5-1.4V361.09a2.85,2.85,0,0,1,.31-1.27l13-18a2.37,2.37,0,0,1,1.59-.77h.42a.34.34,0,0,0,.33-.34v-.4a.34.34,0,0,0-.33-.35m78.35.12H356a.34.34,0,0,0-.34.33v.4a.34.34,0,0,0,.34.34h1.45c.67,0,.73.2.35,1.18l-11,27h0s-.23.55-.69.55-.7-.44-.76-.54l-6.77-15,5-12.48s.33-.85,2.13-.85h.41a.35.35,0,0,0,.35-.34v-.4a.35.35,0,0,0-.35-.34H339a.35.35,0,0,0-.34.34v.4a.34.34,0,0,0,.34.34h1.46c.65,0,.72.22.33,1.19l-3.41,8.43a.3.3,0,0,1-.24.15.41.41,0,0,1-.27-.17l-3.95-8.75c-.47-.85-.18-.85.45-.85h1.69a.34.34,0,0,0,.34-.34v-.4a.35.35,0,0,0-.34-.34h-9.68a.34.34,0,0,0-.34.34v.4a.34.34,0,0,0,.34.34h.41a1.74,1.74,0,0,1,1.7.88l7.11,15.6-4.92,12.11a.81.81,0,0,1-.61.41c-.42,0-.62-.55-.62-.55l-.05.07-13.59-26.69c-.31-.77-1-1.83-.34-1.83h1.69a.35.35,0,0,0,.35-.34v-.4a.35.35,0,0,0-.35-.34H306.5a.35.35,0,0,0-.35.34v.4a.35.35,0,0,0,.35.34h.41a1.72,1.72,0,0,1,1.69.88l19,37.82.06.16a.41.41,0,0,0,.31.21.42.42,0,0,0,.42-.21v0l7.71-19.27,8.62,18.93.11.29a.41.41,0,0,0,.32.22.43.43,0,0,0,.43-.23.94.94,0,0,0,.05-.19L360.52,342s.34-.84,2.13-.84h.4a.33.33,0,0,0,.34-.34v-.4a.33.33,0,0,0-.34-.33m14.17,1,.06,0a.35.35,0,0,0,.35-.35v-.39a.34.34,0,0,0-.35-.34h-7.73a.33.33,0,0,0-.33.34v.4a.34.34,0,0,0,.33.35h.05a1.51,1.51,0,0,1,1.51,1.51v35a1.5,1.5,0,0,1-1.51,1.51h-.05a.33.33,0,0,0-.33.35v.4a.34.34,0,0,0,.33.34h7.73a.36.36,0,0,0,.35-.35v-.39a.35.35,0,0,0-.35-.35h-.06a1.5,1.5,0,0,1-1.5-1.4V342.48a1.5,1.5,0,0,1,1.5-1.41m42.58-1.13h-6.33a.35.35,0,0,0-.35.34v.4a.35.35,0,0,0,.35.35h0a1.5,1.5,0,0,1,1.5,1.5v25.82l-20.5-27.66a1.35,1.35,0,0,0-1.29-.77H387.9a.34.34,0,0,0-.34.34v.4a.34.34,0,0,0,.34.35h0c.93,0,2.25,2,2.25,2l.16.21v34.33a1.51,1.51,0,0,1-1.51,1.51h-.05a.35.35,0,0,0-.35.35v.39a.36.36,0,0,0,.35.34h6.33a.35.35,0,0,0,.34-.34v-.39a.35.35,0,0,0-.34-.35H395a1.51,1.51,0,0,1-1.5-1.51v-30l23.33,31.7s.54.78.7.78c0,0,.66.28.66-.51V342.55a1.51,1.51,0,0,1,1.52-1.5h.05a.35.35,0,0,0,.34-.35v-.4a.35.35,0,0,0-.34-.34m144.38,0h-6.35a.35.35,0,0,0-.34.34v.4a.35.35,0,0,0,.34.35h.06a1.51,1.51,0,0,1,1.52,1.5v25.82L538.9,340.72a1.36,1.36,0,0,0-1.29-.77h-5.33a.35.35,0,0,0-.34.34v.4a.35.35,0,0,0,.34.35h0c.94,0,2.25,2,2.25,2l.15.21v34.33a1.51,1.51,0,0,1-1.51,1.51h-.05a.36.36,0,0,0-.35.35v.39a.36.36,0,0,0,.35.34h6.33a.35.35,0,0,0,.35-.34v-.39a.35.35,0,0,0-.35-.35h-.05a1.51,1.51,0,0,1-1.5-1.51v-30l23.34,31.7s.54.78.7.78c0,0,.65.28.65-.51V342.55a1.5,1.5,0,0,1,1.52-1.5h.06a.34.34,0,0,0,.33-.35v-.4a.34.34,0,0,0-.33-.34m-123.12,15.5-1.81-.51c-3.4-1.11-5.34-3.17-5.57-5.81a7,7,0,0,1,1.72-5.39,7.76,7.76,0,0,1,5.9-2.28c5.17,0,5.25,4.54,5.25,4.72,0,.62.1,1,.32,1.19l.32.11h.6a.59.59,0,0,0,.47-.21,1.63,1.63,0,0,0,.21-1.18V341h-1.3v.42a9.1,9.1,0,0,0-4.75-2.2c-4.77-.49-7.75,1.11-9.41,2.53a9,9,0,0,0-3.18,6.28c-.21,4.2.94,8.9,10.9,12,4.59,1.41,7.75,4.36,8.42,7.89a7.32,7.32,0,0,1-2.69,7.13c-4.41,3.56-11.05.78-13.25-.58-.84-.52-1.83-1.81-1.77-4.9v-.11a.63.63,0,0,0-.63-.65h-.46l-.41.17a1.1,1.1,0,0,0-.27.73v5.9l.08.06a18.1,18.1,0,0,0,11.52,4.47c.1,0,11.49,0,12.55-10.77,1-10.34-7.94-12.68-12.75-13.93M482.64,340H459.23s-1.15,0-1.15,1v5.52s.08,1.07.83,1.07.9-.91.9-.91.49-4.19,4.68-4.19h4.43v35.09A1.51,1.51,0,0,1,467.4,379h-.06a.34.34,0,0,0-.34.35v.4a.35.35,0,0,0,.34.34h7.73a.35.35,0,0,0,.35-.35v-.39a.35.35,0,0,0-.35-.35H475a1.49,1.49,0,0,1-1.49-1.4V342.44h3.85c4.2,0,4.69,4.19,4.69,4.19s.17.91.91.91.81-1.07.81-1.07v-5.52c0-1-1.15-1-1.15-1m25,.1c10.49.22,18.81,9.37,18.57,20.44s-8.92,19.86-19.42,19.64-18.8-9.37-18.58-20.44,8.93-19.86,19.43-19.64m-.8,37.73c7.77.16,14.23-7.63,14.43-17.41s-5.92-17.82-13.69-18S493.41,350,493.2,359.81s5.92,17.84,13.67,18M315.5,216.38l-1.94.8-13,13c-.08.19-.72,1.75-.8,1.94v65.2l.8,1.94,13,13,1.94.8h30.79l1.94-.8,13-13,.8-1.94V232.1l-.8-1.94-13-13-1.94-.8Zm31-1.22,2.38,1,13.33,13.32,1,2.39v65.69l-1,2.38-13.33,13.32-2.38,1H315.26l-2.38-1-13.33-13.32-1-2.38V231.86l1-2.39,13.33-13.32,2.38-1h31.28ZM341,238.25h0a.22.22,0,0,0,.22-.22v-.26a.22.22,0,0,0-.22-.22h-5a.22.22,0,0,0-.22.22V238a.22.22,0,0,0,.22.22h0a1,1,0,0,1,1,1v9a1.07,1.07,0,0,1-.9,1.12H325.66a1.06,1.06,0,0,1-.89-1v-9.14a1,1,0,0,1,1-.91h0A.22.22,0,0,0,326,238v-.26a.22.22,0,0,0-.22-.22h-5a.22.22,0,0,0-.22.22V238a.22.22,0,0,0,.22.22h0a1,1,0,0,1,1,1v22.5a1,1,0,0,1-1,1l0,0a.22.22,0,0,0-.22.22v.26a.23.23,0,0,0,.22.22h5a.22.22,0,0,0,.22-.22v-.26a.22.22,0,0,0-.22-.22h0a1,1,0,0,1-1-.91v-9.87a1.08,1.08,0,0,1,.76-1h10.72A1.1,1.1,0,0,1,337,252v9.72a1,1,0,0,1-1,1l0,0a.21.21,0,0,0-.22.22v.26a.22.22,0,0,0,.22.22h5a.22.22,0,0,0,.22-.22v-.26a.22.22,0,0,0-.22-.22h0a1,1,0,0,1-1-.91V239.16a1,1,0,0,1,1-.91m8.15,31.31h-4.56a.23.23,0,0,0-.23.23V270a.22.22,0,0,0,.23.22h.94c.42,0,.46.13.21.76l-7.05,17.39h0s-.16.35-.45.35-.45-.28-.49-.34l-4.36-9.65,3.22-8s.21-.54,1.37-.54h.26a.22.22,0,0,0,.22-.22v-.26a.22.22,0,0,0-.22-.22h-4.56a.22.22,0,0,0-.22.22V270a.22.22,0,0,0,.22.22h.94c.42,0,.47.13.22.77l-2.2,5.43a.2.2,0,0,1-.16.09.21.21,0,0,1-.17-.11l-2.55-5.63c-.3-.54-.11-.54.29-.54h1.09a.22.22,0,0,0,.22-.22v-.26a.22.22,0,0,0-.22-.22h-6.24a.23.23,0,0,0-.23.22V270a.22.22,0,0,0,.23.22h.26a1.11,1.11,0,0,1,1.09.57l4.58,10-3.16,7.81a.59.59,0,0,1-.4.26c-.28,0-.41-.36-.41-.36l0,.05L318,271.37c-.2-.49-.62-1.17-.22-1.17h1.1a.22.22,0,0,0,.23-.22v-.26a.23.23,0,0,0-.23-.22h-6.24a.22.22,0,0,0-.22.22V270a.22.22,0,0,0,.22.22h.27a1.1,1.1,0,0,1,1.09.57l12.2,24.34,0,.1s.08.14.2.14a.27.27,0,0,0,.27-.14v0l5-12.41L337.29,295l.07.19a.26.26,0,0,0,.2.13.28.28,0,0,0,.28-.14.4.4,0,0,0,0-.12l9.6-24.26s.22-.54,1.38-.54h.26a.22.22,0,0,0,.22-.22v-.26a.23.23,0,0,0-.22-.23m7.12-36.3L345,222.08H316.79l-11.18,11.18v62.66l11.18,11.18H345l11.18-11.18V233.26Zm2.72-1v64.94L346.16,310H315.63l-12.79-12.8V232.23l12.79-12.8h30.53Zm-18,6h0a.22.22,0,0,0,.22-.22v-.26a.23.23,0,0,0-.22-.22h-5a.22.22,0,0,0-.22.22V238a.22.22,0,0,0,.22.22h0a1,1,0,0,1,1,1v9a1.07,1.07,0,0,1-.9,1.12H325.66a1.06,1.06,0,0,1-.89-1v-9.14a1,1,0,0,1,1-.91h0A.22.22,0,0,0,326,238v-.26a.22.22,0,0,0-.22-.22h-5a.22.22,0,0,0-.22.22V238a.22.22,0,0,0,.22.22h0a1,1,0,0,1,1,1v22.5a1,1,0,0,1-1,1l0,0a.22.22,0,0,0-.22.22v.26a.22.22,0,0,0,.22.21h5a.22.22,0,0,0,.22-.22v-.25a.22.22,0,0,0-.22-.22h0a1,1,0,0,1-1-.91v-9.87a1.08,1.08,0,0,1,.76-1h10.72A1.1,1.1,0,0,1,337,252v9.72a1,1,0,0,1-1,1l0,0a.22.22,0,0,0-.22.22v.26a.22.22,0,0,0,.22.21h5a.22.22,0,0,0,.22-.22v-.25a.23.23,0,0,0-.22-.22h0a1,1,0,0,1-1-.91V239.16a1,1,0,0,1,1-.91m8.15,31.31h-4.56a.23.23,0,0,0-.23.23V270a.22.22,0,0,0,.23.22h.94c.41,0,.46.13.21.76l-7.05,17.39h0s-.16.35-.45.35a.66.66,0,0,1-.49-.35l-4.36-9.65,3.22-8s.21-.54,1.37-.54h.26a.22.22,0,0,0,.22-.22v-.26a.21.21,0,0,0-.22-.22h-4.56a.22.22,0,0,0-.23.22V270a.23.23,0,0,0,.23.22h.94c.42,0,.47.13.22.77l-2.2,5.43a.2.2,0,0,1-.16.09.21.21,0,0,1-.17-.11l-2.55-5.63c-.3-.54-.12-.54.29-.54h1.09a.22.22,0,0,0,.23-.22v-.26a.22.22,0,0,0-.23-.22h-6.24a.22.22,0,0,0-.23.22V270a.22.22,0,0,0,.23.22h.26a1.1,1.1,0,0,1,1.09.57l4.59,10-3.16,7.81a.59.59,0,0,1-.4.26c-.27,0-.41-.36-.41-.36l0,.05L318,271.37c-.2-.49-.62-1.17-.22-1.17h1.1a.22.22,0,0,0,.23-.22v-.26a.22.22,0,0,0-.23-.22h-6.24a.22.22,0,0,0-.22.22V270a.22.22,0,0,0,.22.22h.26a1.1,1.1,0,0,1,1.09.57l12.2,24.34,0,.1s.08.14.2.14a.27.27,0,0,0,.27-.14v0l5-12.41L337.29,295l.07.19a.26.26,0,0,0,.2.13.28.28,0,0,0,.28-.14.45.45,0,0,0,0-.12l9.6-24.26s.22-.54,1.38-.54h.26a.22.22,0,0,0,.23-.22v-.26a.23.23,0,0,0-.23-.23M134,414.12h.41c.27,2.17,1.35,4.12,3.9,4.12,2.72,0,3.29-1.94,3.29-3,0-2.06-1.88-2.31-3.41-2.88-2.35-.78-3.76-1.49-3.76-4.19a4.11,4.11,0,0,1,4.37-4.11,5.05,5.05,0,0,1,3.29,1.16l.61-.53h.29v4.19h-.37a8.63,8.63,0,0,0-1.31-3.27,3,3,0,0,0-2.25-1.12,2.84,2.84,0,0,0-3,3.14c0,1.78,1.35,2.2,2.78,2.63,2.23.67,4.51,1.59,4.51,4.33,0,2.9-2.25,4-4.86,4a6.41,6.41,0,0,1-3.49-1l-.78.76H134Zm23.29-9.82h4.92v.43c-.86,0-1.55.06-1.55.59a2.23,2.23,0,0,0,.12.37l3.51,9.74h0l2.53-7.21-.65-1.84a3,3,0,0,0-.78-1.33,2.2,2.2,0,0,0-1.35-.33v-.43h5.82v.43c-.78,0-1.76.06-1.76,1a18.73,18.73,0,0,0,.59,1.92l2.65,7.62h0l1.33-4.39a28.6,28.6,0,0,0,1.35-5.17c0-.94-.92-.92-1.65-1v-.43h3.7v.43c-1.24.21-1.57,1.94-1.88,3l-3.41,11h-.37l-3.37-9.8h0l-3.39,9.8h-.35l-4.57-12.09a5,5,0,0,0-.65-1.51,1.32,1.32,0,0,0-.84-.35Zm33.11,14.09V418c1.12,0,1.86-.1,1.86-1.14V405.87c0-1-.74-1.14-1.86-1.14v-.43h5.82v.43c-1.16,0-1.9.1-1.9,1.14v10.95c0,1,.74,1.14,1.9,1.14v.43Zm20.4-4.27h.41c.27,2.17,1.35,4.12,3.9,4.12,2.72,0,3.29-1.94,3.29-3,0-2.06-1.88-2.31-3.41-2.88-2.35-.78-3.76-1.49-3.76-4.19a4.11,4.11,0,0,1,4.37-4.11,5,5,0,0,1,3.29,1.16l.61-.53h.29v4.19h-.37a8.64,8.64,0,0,0-1.31-3.27,3,3,0,0,0-2.25-1.12,2.84,2.84,0,0,0-3,3.14c0,1.78,1.35,2.2,2.78,2.63,2.23.67,4.51,1.59,4.51,4.33,0,2.9-2.25,4-4.86,4a6.41,6.41,0,0,1-3.49-1l-.78.76h-.24Zm24.22,0h.41c.26,2.17,1.35,4.12,3.9,4.12,2.72,0,3.29-1.94,3.29-3,0-2.06-1.88-2.31-3.41-2.88-2.35-.78-3.76-1.49-3.76-4.19a4.11,4.11,0,0,1,4.37-4.11,5,5,0,0,1,3.29,1.16l.61-.53H244v4.19h-.37a8.63,8.63,0,0,0-1.31-3.27,3,3,0,0,0-2.25-1.12,2.84,2.84,0,0,0-3,3.14c0,1.78,1.35,2.2,2.78,2.63,2.23.67,4.51,1.59,4.51,4.33,0,2.9-2.25,4-4.86,4a6.4,6.4,0,0,1-3.49-1l-.78.76H235Zm53.47-9.39H285.1c-.76,0-1,.31-1.43.86-.61.72-1,1.57-1.65,2.33l-.27-.14.86-3.8a6.45,6.45,0,0,0,1.78.33h10.17a6.48,6.48,0,0,0,1.78-.33l.75,3.82-.28.14a22.18,22.18,0,0,0-1.53-2.35c-.47-.55-.67-.86-1.43-.86h-3.33v12.09c0,.88.41,1.08,1.9,1.14v.43h-5.82V418c1.41-.06,1.86-.26,1.86-1.14Zm22.6,13.66V418c1.12,0,1.86-.1,1.86-1.14V405.87c0-1-.73-1.14-1.86-1.14v-.43h5.82v.43c-1.16,0-1.9.1-1.9,1.14v10.95c0,1,.74,1.14,1.9,1.14v.43Zm20.2,0V418c1.08,0,1.82-.1,1.82-1.14V405.69c-.06-.88-.84-.88-1.61-1v-.43H335l5.39,11.56,5.08-11.56h3.23v.43c-1.06.08-1.51.21-1.51,1.33v10.76c0,1,.55,1.14,1.51,1.14v.43h-5.31V418c1.45-.1,1.69-.24,1.73-1.14V406.1h0l-5.31,12.29h-.37l-5.72-12.15h0v10.58c0,.86.74,1.14,1.88,1.14v.43Zm32.32,0V418c1,0,1.59-.1,1.59-1.14V405.87c0-1-.73-1.14-1.65-1.14v-.43h10.41l1,3.29-.43.1a14.23,14.23,0,0,0-.92-1.29,3.75,3.75,0,0,0-3.25-1.68h-3.1V411h1.12c2.06,0,2.88-.27,3.35-2.57H372v5.88h-.33c-.21-2.29-1.11-2.76-3.08-2.76h-1.39V417c0,.92.65,1,1.41,1h2.29a2.87,2.87,0,0,0,2.37-1,12.17,12.17,0,0,0,1.86-2.35l.35.1-.82,3.66Zm26.19-14.09c1.92,0,3.9,0,5.88,0,2.65,0,4.94,1.29,4.94,4.21s-2.92,3.92-5.41,3.92h-1.84v4.43c0,1,.73,1.14,1.8,1.14v.43h-5.33V418c1.12,0,1.47-.1,1.47-1.14V405.87c0-1-.49-1.14-1.51-1.14Zm3.57,7.66H394c2.76,0,4.35-.2,4.35-3.72,0-2.1-.94-3.55-3.18-3.55-1.37,0-1.84,0-1.84,1.18Zm21.08,6.43V418c1.12,0,1.86-.1,1.86-1.14V405.87c0-1-.73-1.14-1.86-1.14v-.43h5.82v.43c-1.16,0-1.9.1-1.9,1.14v10.95c0,1,.73,1.14,1.9,1.14v.43Zm20.59,0V418c1,0,1.59-.1,1.59-1.14V405.87c0-1-.74-1.14-1.66-1.14v-.43h10.41l1,3.29-.43.1a14.23,14.23,0,0,0-.92-1.29,3.75,3.75,0,0,0-3.25-1.68h-3.11V411h1.12c2.06,0,2.88-.27,3.35-2.57h.33v5.88h-.33c-.21-2.29-1.1-2.76-3.08-2.76h-1.39V417c0,.92.65,1,1.41,1h2.29a2.86,2.86,0,0,0,2.37-1,12.26,12.26,0,0,0,1.86-2.35l.34.1-.81,3.66Zm38.74-13.66h.33v4.76h-.37c-.35-2.65-2.1-4.94-5-4.94a5.06,5.06,0,0,0-4.31,3,9.88,9.88,0,0,0-.75,4.06A7.6,7.6,0,0,0,465,416.1a4.36,4.36,0,0,0,3.66,2.14c2.86,0,4.63-2.1,5.12-4.65h.39v4.55h-.43l-.57-1a8.14,8.14,0,0,1-4.57,1.49c-4.43,0-7.17-2.76-7.17-7.19a7.11,7.11,0,0,1,7.35-7.37,7.79,7.79,0,0,1,4.35,1.49ZM489,418.39V418c1,0,1.59-.1,1.59-1.14V405.87c0-1-.74-1.14-1.66-1.14v-.43h10.41l1,3.29-.43.1a13.39,13.39,0,0,0-.92-1.29,3.75,3.75,0,0,0-3.25-1.68h-3.1V411h1.12c2.06,0,2.88-.27,3.35-2.57h.33v5.88h-.33c-.21-2.29-1.1-2.76-3.08-2.76h-1.39V417c0,.92.65,1,1.41,1h2.29a2.87,2.87,0,0,0,2.37-1,12.25,12.25,0,0,0,1.86-2.35l.35.1-.82,3.66Zm26.74-4.27h.41c.27,2.17,1.35,4.12,3.9,4.12,2.72,0,3.29-1.94,3.29-3,0-2.06-1.88-2.31-3.41-2.88-2.35-.78-3.76-1.49-3.76-4.19a4.11,4.11,0,0,1,4.37-4.11,5.05,5.05,0,0,1,3.29,1.16l.61-.53h.28v4.19h-.37a8.67,8.67,0,0,0-1.31-3.27,3,3,0,0,0-2.25-1.12,2.84,2.84,0,0,0-3,3.14c0,1.78,1.35,2.2,2.77,2.63,2.23.67,4.51,1.59,4.51,4.33,0,2.9-2.24,4-4.86,4a6.42,6.42,0,0,1-3.49-1l-.78.76h-.25Z" fill="#a6a6a6"/></g></svg>