<svg id="4fd808fb-e5e8-48be-9e61-a806d985f7c6" data-name="Calque 1" xmlns="http://www.w3.org/2000/svg" viewBox="0 0 634.96 634.96"><title>Logos-Clients-Orange</title><path id="56714dde-52c3-42fe-b1ef-48fc65f59f67" data-name="background" d="M433.36,438.69H190.94V196.27H433.36Z" fill="#a6a6a6"/><path id="0530c14d-f22d-488b-a244-0fdf7344d62c" data-name="letter o" d="M220.78,419.14c-8.78,0-16.7-5.59-16.7-17.8s7.92-17.8,16.7-17.8,16.69,5.59,16.69,17.8-7.91,17.8-16.69,17.8m0-28.1c-6.64,0-7.85,6-7.85,10.3s1.21,10.31,7.85,10.31,7.85-6,7.85-10.31-1.21-10.3-7.85-10.3" fill="#fff"/><path id="1f96bcda-4f49-4c10-b20e-d0cd3415bf13" data-name="letter r" d="M243.55,384.43H252v4a13.1,13.1,0,0,1,9.3-4.66,9.5,9.5,0,0,1,1.15,0v8.34H262c-3.86,0-8.08.6-9.45,3.6v22.44h-9V384.43Z" fill="#fff"/><path id="0c215493-c332-47f2-9815-5ee79674958c" data-name="letter a" d="M286,415.22a19.88,19.88,0,0,1-11.15,3.35c-6.3,0-10-4.19-10-9.81,0-7.55,6.94-11.54,21.25-13.16v-1.88c0-2.45-1.86-3.88-5.3-3.88a10.12,10.12,0,0,0-8.24,3.88l-6-3.41q4.71-6.6,14.37-6.6c8.8,0,13.74,3.81,13.74,10,0,0,0,24.39,0,24.45h-7.87l-.79-3Zm-12.44-7.11c0,2.27,1.42,4.39,4,4.39,2.79,0,5.51-1.15,8.23-3.55v-8c-8.3,1-12.23,3.17-12.23,7.15" fill="#fff"/><path id="29c113aa-9122-49e0-bb8d-e29c931f8fb1" data-name="letter n" d="M301.72,385.32l7.35-1,.81,4c4.14-3,7.44-4.65,11.58-4.65,6.94,0,10.53,3.68,10.53,11v23.49h-8.88V396.19c0-4.13-1.07-6-4.28-6-2.65,0-5.29,1.2-8.32,3.74v24.19h-8.79V385.32Z" fill="#fff"/><path id="31af07af-7008-4813-9cef-56ff1776d30c" data-name="letter g" d="M353.73,410.91c6.73,0,7.31-6.91,7.31-11.37,0-5.29-2.58-9.57-7.37-9.57-3.19,0-6.75,2.33-6.75,9.93,0,4.15.29,11.06,6.81,11m15.84-26.6v31.95c0,5.63-.45,14.93-16.51,15-6.64,0-12.79-2.61-14-8.4l8.76-1.41c.36,1.66,1.39,3.31,6.35,3.31,4.6,0,6.81-2.2,6.81-7.47v-3.93l-.12-.12c-1.41,2.53-3.55,4.92-8.71,4.92-7.87,0-14.06-5.46-14.06-16.86s6.39-17.6,13.56-17.61c6.74,0,9.23,3.06,9.81,4.67h-.12l.74-4Z" fill="#fff"/><path id="f3e2b86d-85d5-47ca-b490-b4f6651ea6cd" data-name="letter e" d="M390.79,418.78c-9.94,0-15.87-6.4-15.87-17.5s6-17.61,15.73-17.61,15.52,6.2,15.52,17.17c0,.59-.07,1.16-.07,1.74H383.64c.06,6.4,2.72,9.63,7.94,9.63,3.35,0,5.58-1.35,7.66-4.32l6.49,3.6c-2.86,4.79-8,7.3-14.94,7.3m6.66-22c0-4.51-2.59-7.17-6.8-7.17-4,0-6.52,2.6-6.87,7.17Z" fill="#fff"/><path id="612cddf5-5d26-47cc-a7a4-0c906f942c4f" data-name="letter TM" d="M421.37,371.62l-3.27,8.46-3.33-8.46h-2.85v11.16h1.85v-9.31h0l3.66,9.31h1.18l3.64-9.31h.06v9.31h1.84V371.62Zm-20.53,0v1.48h3.48v9.67h1.85v-9.67h3.5v-1.48Z" fill="#fff"/></svg>