<svg id="6793a799-1218-4b47-95d0-803ca8635b0a" data-name="Calque 1" xmlns="http://www.w3.org/2000/svg" viewBox="0 0 634.96 634.96"><title>Logos-Clients</title><path d="M217,320.58l-1.6-1.6-1.6-1.12-2-.91-1.74-.35-.07-.07-2-.14-2.16.21-2.09.56-1.81.84-1.95,1.39-1.6,1.53-1.18,1.67-1,1.88-.91,2.51-.35,2.16-.21,2.37.14,2.37.42,2.51.84,2.37,1.19,2.09,1.39,1.81L200,344l1.6,1.19,1.74.83,1.95.56,2.16.21,2.16-.07.35-.07,1.74-.42,1.81-.69,1.6-1,1.6-1.6.35,2.93h8.15V306.17H217v14.41Zm-.21,12.25-.49,2.16-.56,1.53-.77,1.32-1,1-1.19.77-1.39.49-1,.14-.42-.07h-1l-.7-.21-1.32-.56-1.25-.77-1-1-.7-1.19-.63-1.6-.28-1.81-.07-1.88.21-2.09.42-1.81.56-1.39.84-1.11.9-1,1.25-.77,1.46-.42,1.25-.07.42-.07,1.6.35,1.39.63,1.25.9.91,1.25.63,1.39.35,1.39.28,2.23v2.29Zm-25.62-5.29-.84-2.23-.84-1.67-.9-1.39-1.12-1.39-1.19-1-1.39-1-1.74-1-1.95-.69-2-.49-2.16-.21h-2.15l-2.09.28-2.09.56-2,.77-1.95,1.32-1.53,1.19L163.92,322l-1,1.67-.84,1.74-.56,1.81-.49,2.57L161,332l.14,2.09.42,2,.77,2,1,1.81,1.32,1.88,1.53,1.46,1.67,1.19,1.88,1,1.95.76,2.09.56,2.16.28h2.16l2.16-.28,2.09-.49,2-.77,1.88-1,1.95-1.6,1.32-1.46,1-1.6.49-1,.42-1-8.36-.7-.63,1.12-1,1-1,.77-1.25.56-1.39.28-1.32.07h-.07l-1.46-.21-1.32-.49-1.19-.76-1.11-.91-1-1.39-.56-1.32-.28-1.32-.07-.7h22.49v-1.81l-.21-2.23-.5-2.16Zm-14.76.69h-6.68l.28-1.32.56-1.19.69-1.12,1-.9,1.19-.7,1.32-.42,1.6-.21h.14l1.39.14,1.25.42,1.19.69,1,.84.84,1.11.63,1.19.21,1,.07.42h-6.68Zm2.86-14.14,8.35-7.8H179l-2.58,4.32-2.09,3.48Zm50.2,31.75h8.15V317.3h-8.15ZM156.81,317l-1.46.35L154,318l-1.26.9-1,1-.69,1.12-.28.69-.28-4.18h-7.94v28.27l8.07.07V332.55l.14-1.53.35-1.6.63-1.53,1-1.46L154,325.1l1.39-.84,1.39-.49,1.53-.21,1.39.07H160V317l-1.67-.14-1.53.14ZM67.2,342.51H38.93v4.66H95.47l-3.13-4.66Zm63-8.63-.56,1.39-.76,1.25-1,1.11-1.39,1-1.53.77-1.6.56-1.6.21h-1.67l-1.74-.35-1.88-.63-1.6-.77-1.39-1L112.11,336l-1.19-1.6-.77-1.6-.56-1.67-.35-2-.28-2.22-.07-2.3.21-2.3.69-2.44,1-2.16,1.11-1.81,1.46-1.67,1.67-1.32,1.67-.77,1.67-.42,1.81-.28,2,.14L124,312l1.6.7,1.39.83,1.25,1.12.9,1.32.63,1.32.35,1.25,8.15-.35-.28-1.67-.63-1.88-.84-1.74-1.11-1.67-1.32-1.46-1.6-1.32-1.67-1.18-1.95-.84-2-.7-2.3-.56-2.3-.28-2.44-.07-2.37.28-2.44.49-2.51.76-2.23,1-2.09,1.25-1.88,1.46-1.74,1.81-1.46,1.88L102,315.77l-.91,2.09-.56,2.16-.35,2.23-.07,2.37.07,2.65.21,2.57.63,2.58.77,2.51,1.25,2.58,1.47,2.16,1.67,1.81,1.88,1.6,2.16,1.46,2.09,1.12,2.23.76,2.3.56,2.37.21h2.3l2.44-.28,2.37-.56,2.3-.69,2.09-1,2-1.25,1.88-1.46,1.6-1.74,1.32-2,.77-1.88.49-1.95.28-1.67h-8.57l-.28,1.25Zm345.14-.56v.91l-.21,1.11-.42,1.11-.69,1.11-.91.91-1.11.77-1.33.49-1.32.14-1.32-.14-1.26-.42-1-.77-.69-.9-.35-.84-.14-.83-.07-.84V317.44h-8.28v21l.14,1.39.41,1.39.7,1.33,1,1.11,1.33,1.11,1.39.91,1.53.63,1.67.42,2.3.21,1.81-.14,1.81-.42,1.67-.63,1.81-1.19,1-1.11.49-.7.48,3.2h7.73V317.51h-8.14v15.81Zm45,12.53h8.15V306.23h-8.15Zm-72.48-37.32h-8v9.05h-4.45v5.15h4.38v16.85l.28,1.46.56,1.33.77,1.25,1.12,1.11,1.25.7,1.11.42,1.12.07h7.38v-5.78h-2.93l-.84-.21-.77-.42-.55-.56-.35-.77-.07-.69V322.73h5.56v-5.22h-5.56v-9Zm68.65,19.84-.56-2-1-2.09-1.19-1.81-1.39-1.74-1.53-1.46-1.53-1-1.74-.84-1.88-.56-2-.35-2.23-.07h-.07l-2.37.21-2.16.35-2.09.69-1.81,1-1.53,1.11-1.39,1.32-1.19,1.53-1,1.67-.83,2.09-.63,2-.34,2.09v2.09l.28,2.09.56,1.95.84,1.95,1,1.95,1.4,1.74,1.53,1.53,1.81,1.19,1.81,1,1.88.69,2.09.42,2,.14h.21l1.88-.07,2.09-.35,2.16-.63,2-.84,1.88-1,1.67-1.32,1.46-1.67,1-1.53.63-1.53.14-.42-8.22-.63-.69,1.19-1,1-1.19.77-1.32.49-1.39.28h-1.39l-1.4-.21-1.6-.69-1.18-.69-1-1-.77-1.19-.56-1.32-.21-1.32v-.63H517v-1.46l-.07-1.88-.42-2.09Zm-15-.07h-6.75l.28-1.39.49-1.12.69-1.11,1-.91,1.18-.69,1.25-.42,1.54-.28.34.07h1l1.25.35,1.26.49,1,.77.69.77.56.84.42,1,.35,1.11.06.56h-6.68Zm67.61,17.47H542.69L539.41,350h59.46v-4.25ZM253.38,308.53h-8.08v9.05h-4.38v5.15h4.32v15.32l.07,1.53.28,1.46.56,1.33.77,1.25,1,1.11,1.25.7,1.11.42,1.19.07h7.38v-5.78h-3l-.84-.21-.7-.42-.56-.56-.35-.77-.07-.69V322.73H259v-5.22h-5.57v-9Zm-24,4.53h8.22v-6.89h-8.22Zm195.23,20.26-.07.91-.13,1.11-.49,1.11-.63,1.11-.9.91-1.18.77-1.33.49-1.32.14-1.25-.14L416,339.3l-1-.77-.7-.9-.34-.84-.14-.83-.07-.84V317.44h-8.28v21l.14,1.39.42,1.39.69,1.33,1,1.11,1.32,1.11,1.39.91,1.53.63,1.67.42,2.3.21,1.74-.14,1.81-.42,1.74-.63,1.81-1.19,1-1.11.48-.7.49,3.2h7.66V317.51h-8.08v15.81Zm-44.28,1.74-8.63-28.82H359.08v39.62h8.08V317.44l9,28.41h8.57l9-28.55v28.55h8.14V306.23l-12.67-.07-8.84,28.89Z" fill="#a6a6a6"/><path d="M334.5,311.66h-.07l.13.56.07.56.07,1.18-.07,1-.21,1.19-.21,1.11-.42,1-.48,1.12-.55,1-.7,1-.76.83-.84.84-.77.56-1,.63-1,.63-1.11.48-1.12.35-1.18.28-1.19.21h-.34l-.56-.77-.42-.42-.84-1-.91-.84-1-.77-1-.69-1.11-.63-1.18-.55-1.25-.42-1.53-.42-1.32-.21-1.25-.07-.49-.07-.28-.69-.42-1-.35-1.19-.14-1-.14-1.19.07-1.18.14-1.11.28-1.11.28-1.12.56-1,.56-1,.7-.9.76-.91.84-.84,1-.77,1-.63,1.11-.63,1.11-.41,1.11-.42,1.19-.28,1.25-.21h1.81l1.19.07,1.18.21,1.19.28,1.11.42,1.12.48,1,.63,1,.7.14.07L318.62,286l-18.17.14-11.07,17.89.77-.48,1.11-.56,1.12-.41,1.18-.42,1.19-.21,1.25-.21,1.19-.07,1.25.07,1.18.21,1.19.21,1.18.42,1.11.41,1,.56,1,.63.9.7.84.84.77.9.21.21-.28.63-.49,1.11-.49,1.18L306.3,311l-.21,1.18L306,313.4v1.19l.14,1.25.21,1.25.35,1.19.56,1.46.56,1.11.07.21-.49.63-.42.42-.77.77-.91.77-1,.69-1,.56-1.12.48-1,.42-1.18.21-1.25.21-1.11.07-1.25-.07-1.18-.14-1.19-.28-1.11-.35-1.6-.69-1-.55-1-.63-.9-.77-.84-.84-.77-.9-.69-1-.56-1-.56-1.25-.28-1-.28-1.11-.07-1.19-.07-1.11.07-.63v-.21l-11.14,18.31,8.7,15,23.88-.07-.7-.21-.56-.21-1.11-.49-1-.55-1-.7-.9-.77-.84-.83-.77-.91-.63-1-.63-1-.42-1.11-.35-1.11-.28-1.46-.07-1.18.07-1.12.07-1.11.21-1.11.35-1.11.48-1.11.14-.28.77-.07h.63l1.25-.21,1.32-.35,1.18-.35,1.19-.49,1.18-.63,1-.63,1-.77,1.32-1.19.84-.9.77-1,.21-.21h.14l.69.07,1.11.21,1.25.28,1.11.42,1.11.49,1,.63.9.7.91.7.76.83.77.91.63,1,.55,1,.42,1,.34,1.11.21,1.12.14,1.11v.91l-.07,1.18-.21,1-.35,1.11-.42,1.11-.48,1-.77,1.32-.77.84-.69.84-1,.77-.9.69-1,.63-1.11.49-1.11.42-.28.07h23l9.4-15.8L334.5,311.66Z" fill="#686868"/></svg>