<svg id="50049d43-e2ab-4add-bcc4-320a83174d40" data-name="Calque 1" xmlns="http://www.w3.org/2000/svg" viewBox="0 0 634.96 634.96"><title>Logos-Clients</title><path d="M558.51,297.68l-22.9,33.13c-3,4.36-7.91,8.56-13.82,9v1h25.47c6.76,0,11.69-4.4,15-9.25l23.52-33.91h-27.3Z" fill="#a6a6a6"/><path d="M558.51,297.68l-22.9,33.13c-3,4.36-7.91,8.56-13.82,9v1h25.47c6.76,0,11.69-4.4,15-9.25l23.52-33.91h-27.3Z" fill="#a6a6a6"/><path d="M136.75,340.84V301.32h11.54v39.52H136.75Zm265.92,0L375,317.37v23.47h-9.74V301.32h8.27l27.34,23.1v-23.1h9.74v39.52h-7.91Zm60.25-26.77a40.88,40.88,0,0,0-18.86-4.64c-9.29,0-16.22,4.81-16.22,11.49,0,6.85,7,11.69,16.13,11.69a36.89,36.89,0,0,0,19.31-5.3v9.78a45.09,45.09,0,0,1-19.8,4.48c-15.81,0-28.24-8.07-28.24-20.66,0-12.39,12.67-20.33,28.2-20.33a51.84,51.84,0,0,1,19.47,3.63v9.86ZM212.45,340.84V301.32H251v8.47H224v9.82h26.4v8.48H224v12.75Zm257.44,0V301.32h40v8.47H481.42v6.85h28v8.47h-28v7.25h28.35v8.48H469.89ZM291,326,307,340.84H294.66a8,8,0,0,1-5.95-2.24l-10.83-10.51a1.3,1.3,0,0,0-.94-.32h-7.37v13.07H258V301.32h25c13,0,18.42,5.82,18.42,12.26,0,7.49-6.68,11.08-10.39,12.43Zm-9.21-6.52c4.56,0,6.77-2.32,6.77-4.93s-2-4.77-6.77-4.77H269.57v9.7ZM192.08,326,208,340.84h-12.3a7.94,7.94,0,0,1-5.95-2.24l-10.84-10.51a1.29,1.29,0,0,0-.94-.32h-7.37v13.07H159.07V301.32h25c13,0,18.42,5.82,18.42,12.26,0,7.49-6.68,11.08-10.39,12.43Zm-9.21-6.52c4.56,0,6.76-2.32,6.76-4.93s-2-4.77-6.76-4.77H170.61v9.7Zm-64.17,21.35-5.06-8.68H91.57L87,340.84H76l22-39.48h10l24.93,39.48H118.71ZM96,323.93h12.87l-6.68-12.06L96,323.93Zm253,16.9L344,332.16H322.49l-4.44,8.68H307.34l21.43-39.48h9.73l24.24,39.48Zm-22.12-16.9h12.55l-6.52-12.06-6,12.06Z" fill="#a6a6a6"/></svg>